<svg xmlns="http://www.w3.org/2000/svg" fill="none" x="0px" y="0px" viewBox="3 1 18 22"><path d="M16 18.0601C17.8183 17.1579 19.2783 15.6676 20.1428 13.8311C21.0074 11.9946 21.2257 9.91981 20.7624 7.94358C20.2991 5.96735 19.1814 4.20576 17.5907 2.94486C16 1.68396 14.0298 0.997803 12 0.997803C9.9702 0.997803 7.99999 1.68396 6.4093 2.94486C4.81862 4.20576 3.70088 5.96735 3.23758 7.94358C2.77428 9.91981 2.99263 11.9946 3.85718 13.8311C4.72172 15.6676 6.18169 17.1579 8.00001 18.0601V19.0001C8.00001 19.2653 8.10537 19.5196 8.2929 19.7072C8.48044 19.8947 8.73479 20.0001 9.00001 20.0001H15C15.2652 20.0001 15.5196 19.8947 15.7071 19.7072C15.8947 19.5196 16 19.2653 16 19.0001V18.0601ZM14.625 16.4861C14.4404 16.5608 14.2822 16.6889 14.1709 16.8541C14.0595 17.0192 14 17.2139 14 17.4131V18.0001H10V17.4131C10 17.2139 9.94051 17.0192 9.82916 16.8541C9.7178 16.6889 9.55966 16.5608 9.37501 16.4861C7.86908 15.8769 6.6219 14.7629 5.84723 13.335C5.07255 11.9072 4.8186 10.2543 5.1289 8.65977C5.4392 7.0652 6.29444 5.6282 7.54803 4.59504C8.80163 3.56188 10.3755 2.99689 12 2.99689C13.6245 2.99689 15.1984 3.56188 16.452 4.59504C17.7056 5.6282 18.5608 7.0652 18.8711 8.65977C19.1814 10.2543 18.9275 11.9072 18.1528 13.335C17.3781 14.7629 16.1309 15.8769 14.625 16.4861ZM16 22.0001C16 22.2653 15.8947 22.5196 15.7071 22.7072C15.5196 22.8947 15.2652 23.0001 15 23.0001H9.00001C8.73479 23.0001 8.48044 22.8947 8.2929 22.7072C8.10537 22.5196 8.00001 22.2653 8.00001 22.0001C8.00001 21.7348 8.10537 21.4805 8.2929 21.293C8.48044 21.1054 8.73479 21.0001 9.00001 21.0001H15C15.2652 21.0001 15.5196 21.1054 15.7071 21.293C15.8947 21.4805 16 21.7348 16 22.0001ZM16.555 8.16806C16.6643 8.24093 16.7581 8.33462 16.8312 8.44377C16.9042 8.55291 16.9551 8.67538 16.9808 8.80418C17.0065 8.93298 17.0066 9.06559 16.9811 9.19442C16.9556 9.32326 16.9049 9.44581 16.832 9.55506L14.832 12.5551C14.7506 12.6788 14.6427 12.783 14.5161 12.8599C14.3895 12.9369 14.2474 12.9847 14.1 13.0001C14.066 13.0001 14.034 13.0051 14 13.0051C13.7348 13.005 13.4805 12.8996 13.293 12.7121L12 11.4141L10.707 12.7071C10.6024 12.8117 10.4759 12.8918 10.3366 12.9416C10.1974 12.9914 10.0488 13.0097 9.90155 12.9952C9.75434 12.9806 9.61219 12.9336 9.48534 12.8575C9.35849 12.7814 9.25011 12.6781 9.16801 12.5551L7.16801 9.55506C7.09512 9.4458 7.04447 9.32326 7.01895 9.19442C6.99343 9.06559 6.99353 8.93299 7.01925 8.80419C7.0712 8.54408 7.22435 8.31526 7.44501 8.16806C7.66567 8.02087 7.93576 7.96736 8.19588 8.0193C8.45599 8.07125 8.68481 8.2244 8.83201 8.44506L10.155 10.4311L11.293 9.29306C11.4805 9.10559 11.7348 9.00027 12 9.00027C12.2652 9.00027 12.5195 9.10559 12.707 9.29306L13.845 10.4311L15.168 8.44506C15.2409 8.33579 15.3346 8.24194 15.4437 8.16888C15.5529 8.09582 15.6753 8.04498 15.8041 8.01925C15.9329 7.99353 16.0655 7.99343 16.1944 8.01897C16.3232 8.0445 16.4458 8.09516 16.555 8.16806Z" fill="#e35e74"></path></svg>