<svg xmlns="http://www.w3.org/2000/svg" version="1.1" viewBox="16 16 68 68">  <path d="m29.801 84h40.5c7.5 0 13.699-6.1992 13.699-13.801v-17.598c0-2.1992-1.8008-4-4-4s-4 1.8008-4 4v17.602c0 3.1992-2.6016 5.8008-5.8008 5.8008l-40.398-0.003906c-3.1992 0-5.8008-2.6016-5.8008-5.8008v-40.398c0-3.1992 2.6016-5.8008 5.8008-5.8008h17.898c2.1992 0 4-1.8008 4-4s-1.8008-4-4-4h-17.898c-7.6016 0-13.801 6.1992-13.801 13.801v40.5c0 7.5 6.1992 13.699 13.801 13.699z" fill="#6366f1"></path>  <path d="m79.5 40.199c2.1992 0 4-1.8008 4-4v-15.699c0-0.30078 0-0.5-0.10156-0.80078 0-0.10156-0.10156-0.19922-0.10156-0.30078 0-0.10156-0.10156-0.30078-0.10156-0.39844-0.10156-0.10156-0.10156-0.30078-0.19922-0.39844-0.10156-0.10156-0.10156-0.19922-0.19922-0.30078-0.10156-0.19922-0.30078-0.39844-0.5-0.60156-0.19922-0.19922-0.39844-0.30078-0.60156-0.5-0.10156-0.10156-0.19922-0.10156-0.30078-0.19922-0.10156-0.10156-0.30078-0.19922-0.39844-0.19922-0.10156-0.10156-0.30078-0.10156-0.39844-0.10156-0.10156 0-0.19922-0.10156-0.39844-0.10156s-0.5-0.10156-0.69922-0.10156h-0.10156l-15.598 0.003906c-2.1992 0-4 1.8008-4 4s1.8008 4 4 4h6.1016l-21.703 21.699c-1.6016 1.6016-1.6016 4.1016 0 5.6992 0.69922 0.70312 1.8008 1.1016 2.8008 1.1016s2-0.39844 2.8008-1.1992l21.699-21.699v6.1016c0 2.1953 1.8008 3.9961 4 3.9961z" fill="#6366f1"></path></svg>