<svg xmlns="http://www.w3.org/2000/svg" xmlns:xlink="http://www.w3.org/1999/xlink" version="1.1" x="0px" y="0px" style="enable-background:new 0 0 100 100;" xml:space="preserve" viewBox="4.9 4.9 90.2 90.2"><g><path d="M50,4.9C25.1,4.9,4.9,25.1,4.9,50S25.1,95.1,50,95.1S95.1,74.9,95.1,50S74.9,4.9,50,4.9z M50,86.7   c-20.2,0-36.7-16.4-36.7-36.7S29.8,13.3,50,13.3S86.7,29.8,86.7,50S70.2,86.7,50,86.7z" fill="#e35e74"></path><path d="M51,25c-5.3-0.3-10.4,1.5-13.9,4.8c-2.8,2.7-4.3,6.1-4.3,9.7c0,2.3,1.9,4.2,4.2,4.2s4.2-1.9,4.2-4.2c0-1.6,0.9-2.8,1.7-3.6   c1.8-1.7,4.7-2.7,7.7-2.5c4.3,0.2,7.9,2.8,8.2,5.8c0.2,2.7-2.2,5.2-5.9,6.1c-4.2,1-7.1,4.5-7.1,8.3v2.6c0,2.3,1.9,4.2,4.2,4.2   c2.3,0,4.2-1.9,4.2-4.2v-2.4c0.1-0.1,0.3-0.3,0.7-0.4c7.7-1.9,12.8-8.1,12.2-14.9C66.6,31.2,59.7,25.4,51,25z" fill="#e35e74"></path><circle cx="50.1" cy="70" r="5" fill="#e35e74"></circle></g></svg>