<svg xmlns="http://www.w3.org/2000/svg" version="1.1" viewBox="6.26 6.25 87.49 87.49">  <path d="m88.27 11.691c-6.9727-7.2578-19.52-7.25-26.492 0-0.61328 0.71484-22.402 22.098-21.762 22.074 4.0117-0.96484 8.4141-0.70703 12.238 0.70312l16.156-16.156c8.9727-8.4883 21.742 4.2305 13.238 13.238 0 0-19.871 19.875-19.871 19.875-0.42188 0.44531-0.9375 0.84766-1.4531 1.1875-4.4102 3.0742-11.129 1.3711-13.488-3.4961-1.9492-0.625-4.1484-0.25391-5.7461 1-0.48438 0.32812-2.3867 2.3398-2.8242 2.7461 5.1797 11.551 21.371 14.285 30.145 5.1992 0 0 19.855-19.875 19.855-19.875 7.3047-7.3047 7.3047-19.188 0-26.492z" fill="#6366f1"></path>  <path d="m55.16 66.66c-2.5234-0.003906-5.0508-0.42578-7.3359-1.2812l-16.156 16.156c-1.75 1.7656-4.1055 2.7305-6.6016 2.7305-8.1953 0.13281-12.551-10.254-6.6328-15.973 0 0 19.871-19.875 19.871-19.875 3.4766-3.6289 9.7539-3.6172 13.254 0 0.6875 0.6875 1.25 1.4688 1.6875 2.3242 0.60156 0.20703 1.2812 0.29297 1.9219 0.29687 1.3516-0.03125 2.8555-0.50391 3.8398-1.3281 0.45313-0.29688 2.3945-2.3516 2.8086-2.7305-5.0078-11.484-21.551-14.281-30.145-5.1992 0 0-19.855 19.875-19.855 19.875-16.867 18.137 8.3281 43.449 26.492 26.492l19.871-19.859c0.6875-0.6875 1.3125-1.4219 1.875-2.2031-1.5859 0.40234-3.293 0.55469-4.8867 0.5625z" fill="#6366f1"></path> </svg>