<svg xmlns="http://www.w3.org/2000/svg" xmlns:xlink="http://www.w3.org/1999/xlink" width="500" zoomAndPan="magnify" viewBox="0 0 375 374.999991" height="500" preserveAspectRatio="xMidYMid meet" version="1.0"><defs><clipPath id="5d5249e362"><path d="M 123 48.574219 L 202 48.574219 L 202 127 L 123 127 Z M 123 48.574219 " clip-rule="nonzero"/></clipPath><clipPath id="975d80f4f5"><path d="M 41 303 L 284 303 L 284 326.074219 L 41 326.074219 Z M 41 303 " clip-rule="nonzero"/></clipPath><clipPath id="d52029fb85"><path d="M 251 307 L 367.828125 307 L 367.828125 322 L 251 322 Z M 251 307 " clip-rule="nonzero"/></clipPath></defs><g clip-path="url(#5d5249e362)"><path fill="#ffbcb0" d="M 201.402344 126.855469 L 123.050781 126.855469 L 123.050781 48.582031 L 201.402344 48.582031 L 201.402344 126.855469 " fill-opacity="1" fill-rule="nonzero"/></g><path fill="#ffffff" d="M 178.757812 110.625 L 145.695312 110.625 L 145.695312 64.816406 L 178.757812 64.816406 L 178.757812 110.625 " fill-opacity="1" fill-rule="nonzero"/><path fill="#93582f" d="M 146.574219 109.746094 L 177.878906 109.746094 L 177.878906 65.691406 L 146.574219 65.691406 Z M 179.636719 111.5 L 144.816406 111.5 L 144.816406 63.9375 L 179.636719 63.9375 L 179.636719 111.5 " fill-opacity="1" fill-rule="nonzero"/><path fill="#f6e3d3" d="M 120.148438 119.425781 L 56.679688 119.425781 L 56.679688 56.015625 L 120.148438 56.015625 L 120.148438 119.425781 " fill-opacity="1" fill-rule="nonzero"/><path fill="#ffffff" d="M 101.804688 106.273438 L 75.023438 106.273438 L 75.023438 69.167969 L 101.804688 69.167969 L 101.804688 106.273438 " fill-opacity="1" fill-rule="nonzero"/><path fill="#ffbcb0" d="M 75.734375 105.5625 L 101.09375 105.5625 L 101.09375 69.878906 L 75.734375 69.878906 Z M 102.515625 106.984375 L 74.3125 106.984375 L 74.3125 68.457031 L 102.515625 68.457031 L 102.515625 106.984375 " fill-opacity="1" fill-rule="nonzero"/><path fill="#f6e3d3" d="M 267.890625 119.425781 L 204.421875 119.425781 L 204.421875 56.015625 L 267.890625 56.015625 L 267.890625 119.425781 " fill-opacity="1" fill-rule="nonzero"/><path fill="#ffffff" d="M 249.550781 106.273438 L 222.765625 106.273438 L 222.765625 69.167969 L 249.550781 69.167969 L 249.550781 106.273438 " fill-opacity="1" fill-rule="nonzero"/><path fill="#ffbcb0" d="M 223.476562 105.5625 L 248.839844 105.5625 L 248.839844 69.878906 L 223.476562 69.878906 Z M 250.261719 106.984375 L 222.054688 106.984375 L 222.054688 68.457031 L 250.261719 68.457031 L 250.261719 106.984375 " fill-opacity="1" fill-rule="nonzero"/><g clip-path="url(#975d80f4f5)"><path fill="#eb9e94" d="M 283.394531 314.808594 C 283.394531 321.035156 229.171875 326.082031 162.285156 326.082031 C 95.398438 326.082031 41.179688 321.035156 41.179688 314.808594 C 41.179688 308.582031 95.398438 303.535156 162.285156 303.535156 C 229.171875 303.535156 283.394531 308.582031 283.394531 314.808594 " fill-opacity="1" fill-rule="nonzero"/></g><g clip-path="url(#d52029fb85)"><path fill="#eb9e94" d="M 367.609375 314.808594 C 367.609375 318.710938 341.667969 321.878906 309.671875 321.878906 C 277.671875 321.878906 251.734375 318.710938 251.734375 314.808594 C 251.734375 310.90625 277.671875 307.742188 309.671875 307.742188 C 341.667969 307.742188 367.609375 310.90625 367.609375 314.808594 " fill-opacity="1" fill-rule="nonzero"/></g><path fill="#7ca417" d="M 104.480469 197.679688 C 104.164062 196.8125 104.277344 196.605469 104.480469 195.816406 C 104.914062 194.144531 108.273438 193.398438 109.972656 190.125 C 111.054688 188.039062 114.734375 188.714844 116.914062 186.707031 C 118.464844 185.277344 116.566406 184.570312 120.4375 182.257812 C 126.320312 178.734375 125.445312 175.003906 125.203125 174.910156 C 124.8125 174.757812 124.878906 175.878906 124.429688 176.449219 C 122.332031 179.117188 108.421875 174.3125 96.671875 182.171875 C 91.558594 185.59375 88.011719 190.316406 87.074219 196.230469 C 86.386719 200.5625 87.820312 202.753906 89.359375 202.347656 C 91.179688 201.867188 89.839844 203.085938 90.984375 204.707031 C 95.730469 211.453125 105.664062 200.914062 104.480469 197.679688 " fill-opacity="1" fill-rule="nonzero"/><path fill="#346e00" d="M 43.683594 209.089844 C 49.417969 214.59375 53.671875 210.277344 57.339844 205.882812 C 58.226562 204.820312 60.777344 208.605469 63.878906 204.609375 C 68.746094 198.320312 62.394531 189.574219 55.769531 169.835938 C 54.957031 167.410156 47.511719 149.957031 43.027344 142.433594 C 40.828125 138.746094 38.367188 136.179688 36.273438 135.101562 C 30.949219 132.359375 27.210938 134.085938 26.816406 131.820312 C 26.53125 130.164062 27.875 129.78125 27.058594 129.433594 C 26.011719 128.988281 23.5 135.929688 24.011719 142.859375 C 24.414062 148.292969 26.355469 150.3125 28.441406 156.316406 C 30.484375 162.191406 30.054688 164.371094 31.4375 173.953125 C 34.050781 192.121094 35.355469 201.101562 43.683594 209.089844 " fill-opacity="1" fill-rule="nonzero"/><path fill="#346e00" d="M 69.679688 273.464844 C 70.148438 268.652344 70.648438 263.835938 71.277344 259.03125 C 71.910156 254.226562 72.664062 249.433594 73.609375 244.675781 C 74.558594 239.917969 75.691406 235.195312 77.082031 230.546875 C 78.46875 225.894531 80.121094 221.316406 82.109375 216.886719 C 84.097656 212.457031 86.429688 208.175781 89.1875 204.175781 C 91.953125 200.179688 95.152344 196.476562 98.792969 193.265625 C 102.433594 190.050781 106.515625 187.339844 110.90625 185.285156 C 111.457031 185.035156 112.007812 184.78125 112.5625 184.539062 L 114.226562 183.820312 C 115.332031 183.335938 116.433594 182.832031 117.503906 182.28125 C 118.578125 181.722656 119.625 181.117188 120.605469 180.410156 C 121.582031 179.710938 122.496094 178.898438 123.238281 177.945312 C 122.511719 178.910156 121.609375 179.738281 120.636719 180.457031 C 119.664062 181.179688 118.625 181.804688 117.558594 182.378906 C 116.492188 182.953125 115.394531 183.46875 114.296875 183.972656 L 112.640625 184.71875 C 112.09375 184.96875 111.550781 185.230469 111.003906 185.488281 C 106.664062 187.605469 102.652344 190.359375 99.097656 193.601562 C 95.535156 196.84375 92.421875 200.558594 89.75 204.554688 C 87.082031 208.558594 84.839844 212.835938 82.9375 217.25 C 81.039062 221.671875 79.472656 226.230469 78.167969 230.863281 C 76.867188 235.492188 75.816406 240.195312 74.949219 244.929688 C 74.082031 249.664062 73.40625 254.4375 72.851562 259.222656 C 72.300781 264.011719 71.878906 268.8125 71.484375 273.628906 L 69.679688 273.464844 " fill-opacity="1" fill-rule="nonzero"/><path fill="#9fbc50" d="M 40.292969 152.402344 C 36.972656 157.550781 31.757812 158.6875 31.664062 158.527344 C 31.550781 158.328125 36.289062 156.539062 38.886719 151.390625 C 36.652344 149.945312 34.019531 148.988281 30.953125 148.738281 C 25.101562 148.265625 27.242188 146.910156 22.417969 145.289062 C 16.09375 143.164062 13.507812 143.003906 12.121094 143.445312 C 9.882812 144.160156 9.804688 142.253906 9.445312 142.609375 C 9.210938 142.835938 7.304688 147.375 10.355469 150.5 C 11.964844 152.152344 13.90625 151.457031 16.09375 153.882812 C 17.261719 155.175781 17.160156 156.039062 18.007812 157.703125 C 19.832031 161.300781 24.167969 160.734375 24.773438 163.878906 C 28.359375 182.515625 35.007812 183.671875 41.007812 183.757812 C 44.3125 183.804688 43.789062 180.957031 45.855469 181.351562 C 51.265625 182.390625 51.316406 161.191406 40.292969 152.402344 " fill-opacity="1" fill-rule="nonzero"/><path fill="#346e00" d="M 69.710938 138.542969 C 74.546875 142.304688 79.84375 141.65625 79.878906 141.472656 C 79.921875 141.25 74.855469 141.128906 70.699219 137.125 C 72.332031 135.023438 74.496094 133.246094 77.308594 132 C 82.675781 129.617188 80.203125 129.046875 84.222656 125.925781 C 89.488281 121.828125 91.875 120.824219 93.332031 120.785156 C 95.679688 120.71875 95.121094 118.894531 95.578125 119.105469 C 95.875 119.246094 99.171875 122.898438 97.332031 126.859375 C 96.359375 128.945312 94.300781 128.933594 93.035156 131.945312 C 92.363281 133.550781 92.742188 134.335938 92.496094 136.183594 C 91.964844 140.179688 87.683594 141.078125 88.152344 144.246094 C 90.941406 163.019531 85.050781 166.304688 79.417969 168.371094 C 76.316406 169.507812 75.863281 166.644531 74.046875 167.703125 C 69.28125 170.46875 62.214844 150.480469 69.710938 138.542969 " fill-opacity="1" fill-rule="nonzero"/><path fill="#7ca417" d="M 70.53125 125.660156 C 64.671875 121.058594 62.066406 116.5625 58.320312 116.105469 C 56.261719 115.855469 56.480469 116.730469 54.496094 115.226562 C 53.582031 114.53125 52.851562 113.445312 52.582031 113.605469 C 52.328125 113.757812 53 114.695312 52.875 115.8125 C 52.683594 117.558594 50.730469 118.074219 49.492188 119.636719 C 48.570312 120.796875 48.386719 122.109375 48.386719 123.480469 C 51.996094 125.0625 58.269531 124.484375 57.40625 124.859375 C 56.519531 125.246094 51.660156 126.238281 48.460938 126.117188 C 48.5 131.636719 46.140625 133.1875 44.636719 139.625 C 43.488281 144.542969 44.089844 146.957031 44.195312 153.734375 C 44.523438 174.371094 39.386719 178.933594 43.902344 187.25 C 44.40625 188.175781 50.449219 195.425781 55.902344 195.480469 C 59.175781 195.511719 60.144531 192.921875 64.4375 192.6875 C 68.625 192.460938 69.890625 194.8125 74.148438 195.1875 C 74.148438 195.1875 77.027344 195.613281 82.597656 191.953125 C 96.664062 182.710938 85.6875 137.566406 70.53125 125.660156 " fill-opacity="1" fill-rule="nonzero"/><path fill="#9fbc50" d="M 109.867188 159.617188 C 109.484375 157.335938 108.332031 156.421875 108.730469 154.339844 C 108.871094 153.59375 109.183594 152.839844 108.9375 152.679688 C 108.605469 152.46875 107.585938 153.527344 107.277344 153.820312 C 104.679688 156.292969 98.773438 155.402344 97.539062 155.269531 C 90.089844 154.46875 80.335938 162.777344 75.78125 168.105469 C 73.671875 170.570312 65.273438 180.398438 67.699219 190.976562 C 67.789062 191.367188 68.429688 199.007812 73.8125 199.773438 C 77.226562 200.261719 78.695312 196.339844 82.4375 197.316406 C 84.894531 197.957031 85.921875 199.667969 88.214844 199.878906 C 91.265625 200.160156 93.929688 196.433594 94.535156 195.53125 C 96.71875 192.269531 95.539062 190.695312 97.539062 184.871094 C 98.476562 182.140625 99.261719 179.851562 101.164062 177.3125 C 102.914062 174.984375 104.382812 174.074219 105.289062 172.863281 C 103.519531 173.429688 101.304688 173.316406 98.859375 172.507812 C 97.1875 171.957031 95.746094 170.792969 95.917969 170.597656 C 96.0625 170.433594 97.941406 171.632812 100.382812 171.460938 C 103.6875 171.222656 105.289062 170.1875 106.234375 169.371094 C 106.148438 167.324219 105.320312 165.625 106.035156 165.207031 C 106.613281 164.863281 107.3125 165.894531 108.210938 165.617188 C 109.554688 165.207031 110.296875 162.167969 109.867188 159.617188 " fill-opacity="1" fill-rule="nonzero"/><path fill="#7ca417" d="M 51.441406 198.753906 C 45.632812 195.792969 44.664062 196.339844 41.070312 192.605469 C 39.914062 191.402344 39.230469 189.378906 31.753906 186.371094 C 30.027344 185.675781 31.21875 184.523438 30.972656 184.265625 C 30.570312 183.84375 28.839844 185.367188 28.042969 187.230469 C 26.175781 191.609375 26.871094 195.082031 28.191406 197.949219 C 33.050781 200.746094 36.277344 199.164062 36.503906 199.765625 C 36.585938 199.980469 32.765625 200.980469 29.753906 200.789062 C 30.367188 201.78125 30.96875 202.691406 31.433594 203.539062 C 32.777344 205.980469 32.613281 210.449219 34.089844 214.902344 C 40.148438 211.984375 45 212.722656 45 212.816406 C 45 212.832031 44.507812 212.839844 44.089844 212.921875 C 39.035156 213.890625 36.773438 216.1875 35.28125 217.707031 C 36.503906 220.007812 38.367188 222.183594 41.339844 223.933594 C 41.980469 224.308594 44.59375 226.027344 48.113281 225.3125 C 51.441406 224.640625 50.464844 220.738281 52.949219 220.914062 C 64.328125 221.71875 61.523438 203.898438 51.441406 198.753906 " fill-opacity="1" fill-rule="nonzero"/><path fill="#7ca417" d="M 71.46875 270.886719 C 75.207031 261.363281 78.332031 251.574219 80.230469 241.53125 C 81.171875 236.515625 81.800781 231.4375 81.964844 226.339844 C 82.046875 223.792969 82.019531 221.242188 81.855469 218.699219 C 81.683594 216.15625 81.386719 213.625 80.929688 211.117188 C 80.8125 210.492188 80.691406 209.871094 80.558594 209.238281 C 80.425781 208.609375 80.292969 207.972656 80.171875 207.335938 C 79.933594 206.054688 79.730469 204.765625 79.578125 203.46875 C 79.269531 200.882812 79.160156 198.269531 79.261719 195.664062 C 79.367188 193.058594 79.6875 190.464844 80.238281 187.921875 L 80.453125 186.96875 L 80.695312 186.023438 C 80.859375 185.398438 81.027344 184.773438 81.207031 184.148438 C 81.566406 182.90625 81.972656 181.667969 82.429688 180.453125 C 83.34375 178.023438 84.464844 175.667969 85.828125 173.457031 C 87.191406 171.25 88.796875 169.1875 90.648438 167.367188 C 91.570312 166.457031 92.554688 165.609375 93.589844 164.832031 L 94.378906 164.265625 C 94.644531 164.078125 94.917969 163.90625 95.183594 163.722656 C 95.730469 163.375 96.28125 163.035156 96.847656 162.722656 C 99.097656 161.453125 101.511719 160.476562 103.996094 159.792969 C 101.527344 160.535156 99.144531 161.5625 96.933594 162.878906 C 96.378906 163.203125 95.839844 163.554688 95.308594 163.910156 C 95.046875 164.097656 94.777344 164.273438 94.523438 164.464844 L 93.753906 165.046875 C 92.746094 165.839844 91.792969 166.703125 90.902344 167.621094 C 89.117188 169.460938 87.582031 171.527344 86.289062 173.734375 C 84.996094 175.941406 83.945312 178.285156 83.101562 180.699219 C 82.679688 181.902344 82.3125 183.128906 81.984375 184.367188 C 81.820312 184.984375 81.667969 185.605469 81.519531 186.230469 L 81.308594 187.164062 L 81.117188 188.101562 C 80.636719 190.605469 80.382812 193.148438 80.339844 195.695312 C 80.300781 198.242188 80.46875 200.789062 80.828125 203.308594 C 81.007812 204.566406 81.234375 205.820312 81.5 207.066406 C 81.632812 207.691406 81.777344 208.3125 81.921875 208.9375 C 82.070312 209.566406 82.210938 210.207031 82.34375 210.84375 C 82.875 213.394531 83.242188 215.980469 83.476562 218.574219 C 83.707031 221.167969 83.796875 223.773438 83.773438 226.375 C 83.726562 231.585938 83.207031 236.777344 82.371094 241.90625 C 80.679688 252.171875 77.742188 262.179688 74.183594 271.917969 L 71.46875 270.886719 " fill-opacity="1" fill-rule="nonzero"/><path fill="#7ca417" d="M 63.164062 274.097656 C 62.703125 261.902344 61.402344 249.714844 59.484375 237.628906 C 57.554688 225.546875 55.003906 213.546875 51.621094 201.78125 C 50.773438 198.839844 49.863281 195.917969 48.890625 193.015625 C 47.917969 190.117188 46.875 187.238281 45.746094 184.398438 C 44.617188 181.554688 43.394531 178.75 42.0625 175.996094 C 41.386719 174.625 40.691406 173.265625 39.953125 171.929688 C 39.210938 170.59375 38.4375 169.277344 37.617188 167.992188 C 35.960938 165.429688 34.132812 162.96875 31.972656 160.824219 C 31.695312 160.5625 31.429688 160.285156 31.144531 160.039062 L 30.289062 159.28125 L 29.402344 158.566406 C 29.101562 158.332031 28.789062 158.121094 28.480469 157.894531 C 28.164062 157.683594 27.847656 157.480469 27.523438 157.28125 C 27.191406 157.09375 26.867188 156.898438 26.523438 156.734375 C 25.851562 156.386719 25.144531 156.09375 24.441406 155.769531 C 23.738281 155.449219 23.042969 155.050781 22.453125 154.53125 C 21.863281 154.015625 21.351562 153.421875 20.917969 152.78125 C 20.691406 152.460938 20.476562 152.144531 20.261719 151.828125 C 20.039062 151.519531 19.816406 151.210938 19.574219 150.917969 C 19.09375 150.328125 18.566406 149.773438 17.988281 149.28125 C 17.402344 148.792969 16.765625 148.367188 16.085938 148.019531 C 15.40625 147.671875 14.6875 147.402344 13.96875 147.140625 C 13.246094 146.875 12.519531 146.609375 11.863281 146.199219 C 11.535156 145.992188 11.230469 145.757812 10.953125 145.492188 C 10.675781 145.222656 10.433594 144.925781 10.210938 144.609375 C 10.4375 144.921875 10.6875 145.210938 10.96875 145.472656 C 11.25 145.734375 11.558594 145.964844 11.886719 146.15625 C 12.542969 146.554688 13.273438 146.808594 13.996094 147.054688 C 14.722656 147.300781 15.453125 147.558594 16.148438 147.898438 C 16.84375 148.234375 17.5 148.65625 18.101562 149.140625 C 18.703125 149.632812 19.25 150.183594 19.75 150.773438 C 20 151.066406 20.234375 151.375 20.464844 151.683594 C 20.6875 152.003906 20.914062 152.316406 21.136719 152.621094 C 21.578125 153.242188 22.085938 153.808594 22.660156 154.289062 C 23.230469 154.777344 23.894531 155.136719 24.589844 155.441406 C 25.285156 155.746094 26.011719 156.027344 26.707031 156.371094 C 27.058594 156.53125 27.398438 156.726562 27.738281 156.910156 C 28.074219 157.105469 28.40625 157.308594 28.734375 157.519531 C 29.050781 157.742188 29.378906 157.953125 29.6875 158.1875 L 30.609375 158.898438 L 31.492188 159.648438 C 31.789062 159.898438 32.0625 160.171875 32.351562 160.433594 C 34.59375 162.574219 36.496094 165.035156 38.222656 167.59375 C 39.078125 168.882812 39.890625 170.195312 40.664062 171.53125 C 41.4375 172.863281 42.164062 174.222656 42.875 175.59375 C 44.273438 178.339844 45.5625 181.144531 46.75 183.984375 C 47.945312 186.828125 49.054688 189.703125 50.089844 192.601562 C 51.125 195.503906 52.097656 198.421875 53.011719 201.367188 C 56.648438 213.132812 59.449219 225.144531 61.632812 237.265625 C 63.800781 249.390625 65.355469 261.632812 66.0625 273.964844 L 63.164062 274.097656 " fill-opacity="1" fill-rule="nonzero"/><path fill="#7ca417" d="M 69.585938 269.019531 C 67.042969 257.078125 65.320312 244.941406 64.21875 232.757812 C 63.132812 220.570312 62.664062 208.3125 63.0625 196.074219 C 63.167969 193.015625 63.332031 189.960938 63.5625 186.910156 C 63.796875 183.859375 64.101562 180.816406 64.503906 177.785156 C 64.898438 174.75 65.398438 171.734375 66.015625 168.738281 C 66.335938 167.246094 66.675781 165.753906 67.0625 164.28125 C 67.453125 162.804688 67.882812 161.339844 68.363281 159.890625 C 69.34375 157.003906 70.511719 154.167969 72.082031 151.558594 C 72.285156 151.238281 72.472656 150.90625 72.691406 150.597656 L 73.335938 149.652344 L 74.019531 148.742188 C 74.253906 148.441406 74.507812 148.160156 74.75 147.867188 C 75.003906 147.585938 75.261719 147.308594 75.527344 147.035156 C 75.804688 146.777344 76.070312 146.507812 76.363281 146.265625 C 76.929688 145.757812 77.542969 145.304688 78.144531 144.820312 C 78.75 144.335938 79.324219 143.78125 79.769531 143.132812 C 80.214844 142.488281 80.566406 141.785156 80.832031 141.058594 C 80.96875 140.691406 81.101562 140.335938 81.230469 139.976562 C 81.371094 139.625 81.515625 139.269531 81.675781 138.925781 C 81.996094 138.234375 82.371094 137.570312 82.8125 136.949219 C 83.257812 136.332031 83.773438 135.765625 84.347656 135.261719 C 84.921875 134.757812 85.550781 134.320312 86.1875 133.890625 C 86.820312 133.457031 87.460938 133.019531 87.996094 132.460938 C 88.261719 132.183594 88.503906 131.882812 88.707031 131.554688 C 88.90625 131.226562 89.070312 130.878906 89.210938 130.519531 C 89.0625 130.875 88.894531 131.21875 88.6875 131.542969 C 88.476562 131.863281 88.234375 132.160156 87.964844 132.429688 C 87.421875 132.972656 86.777344 133.398438 86.136719 133.816406 C 85.492188 134.234375 84.847656 134.660156 84.257812 135.160156 C 83.667969 135.65625 83.132812 136.222656 82.667969 136.84375 C 82.207031 137.464844 81.8125 138.132812 81.472656 138.828125 C 81.300781 139.175781 81.148438 139.53125 81 139.886719 C 80.859375 140.25 80.71875 140.609375 80.578125 140.957031 C 80.304688 141.667969 79.949219 142.339844 79.511719 142.949219 C 79.074219 143.558594 78.523438 144.074219 77.917969 144.535156 C 77.320312 145 76.6875 145.449219 76.09375 145.953125 C 75.792969 146.195312 75.511719 146.46875 75.226562 146.730469 C 74.949219 147.003906 74.675781 147.28125 74.410156 147.566406 C 74.160156 147.855469 73.894531 148.144531 73.648438 148.445312 L 72.933594 149.359375 L 72.257812 150.304688 C 72.03125 150.617188 71.832031 150.949219 71.617188 151.273438 C 69.96875 153.898438 68.726562 156.753906 67.675781 159.652344 C 67.164062 161.109375 66.699219 162.582031 66.277344 164.066406 C 65.851562 165.550781 65.480469 167.042969 65.128906 168.546875 C 64.445312 171.554688 63.882812 174.585938 63.425781 177.628906 C 62.960938 180.675781 62.59375 183.734375 62.300781 186.800781 C 62.003906 189.867188 61.777344 192.9375 61.613281 196.011719 C 60.96875 208.3125 61.195312 220.644531 62.050781 232.929688 C 62.917969 245.214844 64.410156 257.46875 66.742188 269.597656 L 69.585938 269.019531 " fill-opacity="1" fill-rule="nonzero"/><path fill="#346e00" d="M 66.191406 273.847656 C 66.746094 267.34375 67.015625 260.789062 67.148438 254.230469 C 67.277344 247.667969 67.28125 241.097656 67.210938 234.527344 C 67.066406 221.386719 66.632812 208.242188 66.03125 195.105469 C 65.417969 181.964844 64.652344 168.835938 63.632812 155.71875 C 63.371094 152.441406 63.097656 149.164062 62.785156 145.890625 L 62.542969 143.4375 L 62.277344 140.988281 C 62.179688 140.179688 62.054688 139.371094 61.859375 138.585938 C 61.664062 137.800781 61.367188 137.054688 61.007812 136.3125 C 60.832031 135.941406 60.667969 135.558594 60.515625 135.167969 C 60.371094 134.777344 60.242188 134.382812 60.132812 133.980469 C 59.910156 133.179688 59.769531 132.363281 59.632812 131.546875 C 59.375 129.921875 59.160156 128.292969 58.824219 126.6875 C 58.496094 125.082031 58.035156 123.496094 57.34375 122.007812 C 56.65625 120.515625 55.726562 119.136719 54.621094 117.921875 C 55.75 119.117188 56.707031 120.484375 57.425781 121.96875 C 58.148438 123.453125 58.644531 125.039062 59.003906 126.648438 C 59.367188 128.257812 59.617188 129.886719 59.902344 131.503906 C 60.054688 132.308594 60.207031 133.113281 60.441406 133.894531 C 60.554688 134.285156 60.683594 134.667969 60.832031 135.046875 C 60.988281 135.421875 61.15625 135.789062 61.335938 136.160156 C 61.707031 136.890625 62.042969 137.675781 62.253906 138.484375 C 62.46875 139.289062 62.613281 140.109375 62.726562 140.933594 L 63.039062 143.382812 L 63.328125 145.835938 C 63.703125 149.105469 64.035156 152.378906 64.355469 155.65625 C 65.617188 168.757812 66.628906 181.886719 67.480469 195.027344 C 68.328125 208.164062 69 221.316406 69.390625 234.484375 C 69.578125 241.070312 69.699219 247.660156 69.6875 254.257812 C 69.675781 260.855469 69.527344 267.460938 69.085938 274.078125 L 66.191406 273.847656 " fill-opacity="1" fill-rule="nonzero"/><path fill="#346e00" d="M 61.871094 274.226562 C 61.628906 266.523438 60.949219 258.832031 59.75 251.21875 C 58.542969 243.605469 56.820312 236.066406 54.414062 228.734375 C 53.207031 225.074219 51.835938 221.460938 50.25 217.945312 C 48.671875 214.425781 46.878906 211 44.832031 207.730469 C 42.78125 204.460938 40.46875 201.347656 37.796875 198.558594 C 37.128906 197.863281 36.421875 197.195312 35.769531 196.476562 C 35.117188 195.757812 34.488281 195.015625 33.902344 194.246094 C 33.316406 193.472656 32.761719 192.675781 32.28125 191.832031 C 32.042969 191.410156 31.820312 190.976562 31.644531 190.527344 C 31.472656 190.078125 31.320312 189.601562 31.328125 189.117188 C 31.332031 189.601562 31.492188 190.070312 31.671875 190.515625 C 31.855469 190.964844 32.085938 191.386719 32.332031 191.804688 C 32.824219 192.636719 33.390625 193.421875 33.992188 194.179688 C 34.589844 194.933594 35.230469 195.660156 35.894531 196.359375 C 36.554688 197.066406 37.269531 197.714844 37.957031 198.402344 C 40.699219 201.152344 43.085938 204.238281 45.214844 207.484375 C 47.335938 210.738281 49.210938 214.152344 50.867188 217.664062 C 52.53125 221.171875 53.984375 224.78125 55.269531 228.445312 C 57.839844 235.78125 59.722656 243.34375 61.09375 250.992188 C 62.453125 258.644531 63.285156 266.386719 63.683594 274.152344 L 61.871094 274.226562 " fill-opacity="1" fill-rule="nonzero"/><path fill="#93582f" d="M 85.753906 270.019531 L 47.945312 270.019531 C 46.847656 270.019531 45.957031 270.910156 45.957031 272.007812 L 45.957031 276.894531 C 45.957031 277.992188 46.847656 278.882812 47.945312 278.882812 L 48.773438 278.882812 L 50.898438 309.871094 C 50.898438 311.515625 52.234375 312.851562 53.882812 312.851562 L 79.820312 312.851562 C 81.46875 312.851562 82.804688 311.515625 82.804688 309.871094 L 84.925781 278.882812 L 85.753906 278.882812 C 86.855469 278.882812 87.746094 277.992188 87.746094 276.894531 L 87.746094 272.007812 C 87.746094 270.910156 86.855469 270.019531 85.753906 270.019531 " fill-opacity="1" fill-rule="nonzero"/><path fill="#312553" d="M 84.507812 284.835938 L 84.917969 278.847656 L 48.882812 278.847656 Z M 84.507812 284.835938 " fill-opacity="1" fill-rule="nonzero"/><path fill="#eb9e94" d="M 249.65625 200.316406 C 237.550781 192.25 229.863281 196.6875 228.777344 193.5 C 227.492188 189.730469 228.925781 176.851562 227.398438 170.953125 C 226.496094 167.492188 224.460938 164.300781 211.628906 162.203125 C 196.183594 159.675781 179.363281 158.554688 162.285156 158.640625 C 145.210938 158.554688 128.390625 159.675781 112.945312 162.203125 C 100.109375 164.300781 98.074219 167.492188 97.175781 170.953125 C 95.644531 176.851562 97.082031 189.730469 95.796875 193.5 C 94.710938 196.6875 87.023438 192.25 74.917969 200.316406 C 55.894531 212.988281 82.761719 277.089844 97.054688 288.191406 C 101.546875 291.6875 108.882812 291.167969 110.265625 291.21875 C 135.703125 292.15625 149.613281 292.636719 162.132812 292.636719 C 162.183594 292.636719 162.234375 292.636719 162.285156 292.636719 C 162.339844 292.636719 162.390625 292.636719 162.441406 292.636719 C 174.960938 292.636719 188.871094 292.15625 214.308594 291.21875 C 215.6875 291.167969 223.023438 291.6875 227.519531 288.191406 C 241.8125 277.089844 268.679688 212.988281 249.65625 200.316406 " fill-opacity="1" fill-rule="nonzero"/><path fill="#512618" d="M 105.007812 316.890625 L 108.75 316.890625 C 109.550781 316.890625 110.207031 316.234375 110.207031 315.433594 L 119.804688 279.472656 C 119.804688 278.671875 119.148438 278.015625 118.34375 278.015625 L 109.742188 278.015625 C 108.9375 278.015625 108.285156 278.671875 108.285156 279.472656 L 103.550781 315.433594 C 103.550781 316.234375 104.207031 316.890625 105.007812 316.890625 " fill-opacity="1" fill-rule="nonzero"/><path fill="#512618" d="M 127.902344 306.472656 L 130.074219 306.472656 C 130.539062 306.472656 130.921875 306.089844 130.921875 305.625 L 136.496094 284.730469 C 136.496094 284.261719 136.117188 283.882812 135.652344 283.882812 L 130.652344 283.882812 C 130.183594 283.882812 129.804688 284.261719 129.804688 284.730469 L 127.054688 305.625 C 127.054688 306.089844 127.433594 306.472656 127.902344 306.472656 " fill-opacity="1" fill-rule="nonzero"/><path fill="#512618" d="M 219.566406 316.890625 L 215.824219 316.890625 C 215.023438 316.890625 214.367188 316.234375 214.367188 315.433594 L 204.769531 279.472656 C 204.769531 278.671875 205.425781 278.015625 206.226562 278.015625 L 214.832031 278.015625 C 215.632812 278.015625 216.289062 278.671875 216.289062 279.472656 L 221.023438 315.433594 C 221.023438 316.234375 220.367188 316.890625 219.566406 316.890625 " fill-opacity="1" fill-rule="nonzero"/><path fill="#512618" d="M 196.675781 306.472656 L 194.5 306.472656 C 194.035156 306.472656 193.652344 306.089844 193.652344 305.625 L 188.078125 284.730469 C 188.078125 284.261719 188.457031 283.882812 188.921875 283.882812 L 193.921875 283.882812 C 194.386719 283.882812 194.769531 284.261719 194.769531 284.730469 L 197.519531 305.625 C 197.519531 306.089844 197.140625 306.472656 196.675781 306.472656 " fill-opacity="1" fill-rule="nonzero"/><path fill="#ffbcb0" d="M 253.121094 204.625 C 252.1875 204.128906 251.1875 203.671875 250.113281 203.28125 C 246.675781 202.027344 243.207031 202.410156 241.964844 202.550781 C 241.964844 202.550781 236.121094 203.214844 230.675781 208.015625 C 214.839844 221.992188 223.683594 261.054688 213.59375 263.769531 C 202.839844 266.660156 182.660156 266.5 162.664062 266.425781 L 162.664062 266.421875 C 162.539062 266.421875 162.414062 266.425781 162.285156 266.425781 C 162.160156 266.425781 162.035156 266.421875 161.90625 266.421875 L 161.90625 266.425781 C 141.910156 266.5 121.734375 266.660156 110.980469 263.769531 C 100.890625 261.054688 109.734375 221.992188 93.898438 208.015625 C 88.453125 203.214844 82.609375 202.550781 82.609375 202.550781 C 81.367188 202.410156 77.894531 202.027344 74.460938 203.28125 C 73.386719 203.671875 72.382812 204.128906 71.449219 204.625 C 60.304688 223.203125 84.121094 278.34375 97.277344 288.566406 C 101.773438 292.054688 109.109375 291.535156 110.488281 291.589844 C 132.351562 292.523438 146.882812 293.210938 161.90625 293.253906 L 161.90625 293.257812 C 162.035156 293.257812 162.160156 293.257812 162.285156 293.257812 C 162.414062 293.257812 162.539062 293.257812 162.664062 293.257812 L 162.664062 293.253906 C 177.691406 293.210938 192.222656 292.523438 214.085938 291.589844 C 215.464844 291.535156 222.800781 292.054688 227.296875 288.566406 C 240.453125 278.34375 264.269531 223.203125 253.121094 204.625 " fill-opacity="1" fill-rule="nonzero"/><path fill="#eb9e94" d="M 228.777344 193.5 C 227.492188 189.730469 228.925781 176.851562 227.398438 170.953125 C 226.496094 167.492188 224.460938 164.300781 211.628906 162.203125 C 196.183594 159.675781 179.363281 158.554688 162.285156 158.640625 C 145.210938 158.554688 128.390625 159.675781 112.945312 162.203125 C 100.109375 164.300781 98.074219 167.492188 97.175781 170.953125 C 95.644531 176.851562 97.082031 189.730469 95.796875 193.5 C 95.539062 194.253906 94.910156 194.578125 93.941406 194.746094 C 96.472656 194.84375 101.324219 195.46875 106.164062 198.550781 C 118.324219 206.285156 118.625 235.96875 118.710938 235.953125 C 118.714844 235.953125 118.703125 235.910156 118.707031 235.886719 C 118.765625 235.5 205.632812 235.5 205.695312 235.886719 C 205.695312 235.910156 205.683594 235.953125 205.691406 235.953125 C 205.777344 235.96875 206.074219 206.285156 218.234375 198.550781 C 223.175781 195.410156 228.121094 194.816406 230.605469 194.742188 C 229.652344 194.574219 229.03125 194.246094 228.777344 193.5 " fill-opacity="1" fill-rule="nonzero"/><path fill="#eb9e94" d="M 162.285156 265.644531 C 143.308594 265.644531 118.949219 265.226562 112.773438 264.050781 C 112.21875 263.945312 110.304688 263.421875 108.96875 261.121094 C 107.542969 258.675781 102.105469 242.972656 105.625 237.117188 C 109.292969 231.007812 117.882812 229.308594 122.671875 228.84375 C 129.519531 228.171875 144.699219 227.753906 162.285156 227.753906 C 179.871094 227.753906 195.050781 228.171875 201.902344 228.84375 C 206.691406 229.308594 215.277344 231.007812 218.949219 237.117188 C 222.46875 242.972656 217.03125 258.675781 215.605469 261.121094 C 214.269531 263.421875 212.355469 263.945312 211.800781 264.050781 C 205.621094 265.226562 181.265625 265.644531 162.285156 265.644531 " fill-opacity="1" fill-rule="nonzero"/><path fill="#ffbcb0" d="M 217.375 238.0625 C 214.144531 232.6875 206.25 231.109375 201.722656 230.667969 C 187.039062 229.234375 137.535156 229.234375 122.851562 230.667969 C 118.324219 231.109375 110.425781 232.6875 107.199219 238.0625 C 104.238281 242.988281 109.148438 257.78125 110.554688 260.203125 C 111.453125 261.746094 112.644531 262.160156 113.117188 262.25 C 124.050781 264.332031 200.523438 264.332031 211.457031 262.25 C 211.925781 262.160156 213.117188 261.746094 214.019531 260.203125 C 215.425781 257.78125 220.335938 242.988281 217.375 238.0625 " fill-opacity="1" fill-rule="nonzero"/><path fill="#ec7d40" d="M 222.183594 223.453125 C 221.039062 218.8125 213.292969 212.613281 206.800781 211.53125 C 200.425781 210.46875 197.128906 211.386719 191.65625 211.96875 C 172.40625 214.03125 153.765625 232.148438 133.484375 232.746094 C 133.144531 232.753906 132.582031 232.667969 131.941406 232.929688 C 129.652344 233.859375 128.550781 239.625 129.617188 240.566406 C 129.863281 240.785156 130.183594 240.8125 130.269531 240.800781 C 157.722656 237.636719 184.097656 242.90625 208.117188 239.699219 C 215.027344 238.777344 216.972656 236.957031 218.9375 235.339844 C 222.238281 232.617188 223.179688 227.496094 222.183594 223.453125 " fill-opacity="1" fill-rule="nonzero"/><path fill="#000000" d="M 186.675781 223.394531 C 187.925781 222.402344 189.316406 221.625 190.761719 220.976562 C 192.207031 220.332031 193.722656 219.835938 195.265625 219.472656 C 196.8125 219.109375 198.386719 218.890625 199.972656 218.828125 C 201.554688 218.765625 203.144531 218.851562 204.707031 219.1875 C 203.15625 219.5625 201.636719 219.84375 200.132812 220.160156 C 198.628906 220.46875 197.136719 220.789062 195.65625 221.132812 C 194.171875 221.480469 192.691406 221.847656 191.207031 222.238281 C 189.71875 222.625 188.230469 223.042969 186.675781 223.394531 " fill-opacity="1" fill-rule="nonzero"/><path fill="#312553" d="M 212.410156 276.714844 C 205.429688 261.46875 197.804688 227.957031 195.070312 222.050781 C 192.421875 216.324219 190.8125 214.496094 189.660156 213.40625 C 186.179688 210.089844 182.207031 209.011719 177.761719 208.003906 C 166.460938 205.4375 160.117188 205.757812 145.914062 203.679688 C 143.941406 203.390625 136.804688 202.328125 127.527344 202.597656 C 122.53125 202.746094 120.894531 204.039062 119.410156 205.097656 C 113.101562 209.609375 115.484375 220.507812 116.167969 222.59375 C 116.710938 224.25 118.914062 229.671875 124.820312 232.082031 C 127.167969 233.039062 130.710938 233.597656 137.804688 232.960938 C 142.847656 232.507812 145.675781 232.210938 150.175781 231.878906 C 154.21875 231.578125 170.582031 230.277344 174.449219 234.683594 C 176.421875 236.925781 176.410156 240.425781 176.613281 243.125 C 177.703125 257.632812 189.101562 268.992188 197.816406 280.382812 C 203.003906 280.019531 208.160156 279.027344 212.410156 276.714844 " fill-opacity="1" fill-rule="nonzero"/><path fill="#3a4a1d" d="M 189.441406 240.777344 C 183.300781 240.777344 177.175781 240.53125 170.6875 240.277344 C 164.175781 240.015625 157.445312 239.746094 150.683594 239.746094 L 149.777344 239.746094 L 149.738281 239.574219 C 148.992188 236.238281 148.785156 232.660156 149.125 228.949219 L 149.136719 228.8125 L 149.265625 228.761719 C 154.398438 226.785156 159.535156 224.179688 164.503906 221.65625 C 173.359375 217.15625 182.515625 212.507812 191.632812 211.53125 C 192.75 211.414062 193.769531 211.28125 194.757812 211.152344 C 197.019531 210.859375 198.976562 210.605469 201.257812 210.605469 C 203.027344 210.605469 204.851562 210.765625 206.835938 211.09375 C 213.210938 212.15625 221.210938 218.371094 222.394531 223.179688 C 223.320312 226.933594 222.675781 232.324219 219.074219 235.289062 L 218.835938 235.492188 C 216.960938 237.042969 214.835938 238.804688 208.148438 239.695312 C 202.613281 240.4375 196.671875 240.777344 189.441406 240.777344 " fill-opacity="1" fill-rule="nonzero"/><path fill="#f79556" d="M 225.691406 295.707031 C 224.648438 293.046875 219.089844 290.488281 212.589844 277.125 C 212.574219 277.085938 212.5625 277.046875 212.542969 277.007812 C 205.53125 261.898438 197.820312 227.992188 195.070312 222.050781 C 192.421875 216.324219 190.8125 214.496094 189.660156 213.40625 C 186.179688 210.089844 182.207031 209.011719 177.761719 208.003906 C 166.460938 205.4375 160.117188 205.757812 145.914062 203.679688 C 143.941406 203.390625 136.804688 202.328125 127.527344 202.597656 C 122.53125 202.746094 120.894531 204.039062 119.410156 205.097656 C 113.101562 209.609375 115.484375 220.507812 116.167969 222.59375 C 116.710938 224.25 118.914062 229.671875 124.820312 232.082031 C 127.167969 233.039062 130.710938 233.597656 137.804688 232.960938 C 142.847656 232.507812 145.675781 232.210938 150.175781 231.878906 C 154.21875 231.578125 170.582031 230.277344 174.449219 234.683594 C 176.421875 236.925781 176.410156 240.425781 176.613281 243.125 C 178.164062 263.765625 200.582031 278.035156 206.449219 295.097656 C 208.179688 300.132812 210.375 301.390625 212.25 302.9375 C 216.714844 306.621094 224.402344 307.878906 226.726562 305.003906 C 228.484375 302.828125 226.859375 298.683594 225.691406 295.707031 " fill-opacity="1" fill-rule="nonzero"/><path fill="#ffffff" d="M 206.050781 294.488281 C 205.082031 294.660156 202.949219 303.753906 205.015625 306.851562 C 205.738281 307.933594 215.089844 314.410156 219.488281 317.179688 C 220.3125 317.699219 222.613281 319.097656 225.691406 320.277344 C 227.132812 320.828125 231.09375 322.714844 237.871094 322.34375 C 240.277344 322.210938 244.035156 320.960938 246.367188 319.4375 C 247.839844 318.480469 248.253906 317.703125 248.433594 317.375 C 249.414062 315.589844 247.753906 312.582031 247.402344 312.015625 C 245.851562 309.527344 243.957031 309.011719 240.164062 306.851562 C 233.984375 303.332031 230.5 299.210938 226.726562 294.457031 C 225.679688 293.140625 226.195312 292.296875 225.269531 291.777344 C 223.742188 290.921875 219.621094 293.90625 215.96875 297.554688 C 214.933594 298.589844 213.472656 299.703125 211.21875 299.007812 C 207.742188 297.9375 207.191406 294.289062 206.050781 294.488281 " fill-opacity="1" fill-rule="nonzero"/><path fill="#eb9e94" d="M 205.015625 302.71875 C 206.683594 303.792969 208.394531 304.785156 210.105469 305.78125 L 215.238281 308.761719 L 220.367188 311.738281 C 222.078125 312.730469 223.785156 313.734375 225.5 314.703125 C 225.925781 314.945312 226.359375 315.199219 226.773438 315.417969 C 226.988281 315.539062 227.179688 315.632812 227.394531 315.722656 C 227.609375 315.816406 227.828125 315.902344 228.054688 315.988281 C 228.945312 316.324219 229.875 316.582031 230.8125 316.804688 C 232.6875 317.246094 234.625 317.433594 236.546875 317.382812 C 238.472656 317.3125 240.394531 316.96875 242.207031 316.273438 C 242.4375 316.191406 242.660156 316.09375 242.886719 316 C 243.113281 315.910156 243.328125 315.8125 243.542969 315.699219 C 243.976562 315.480469 244.402344 315.230469 244.820312 314.976562 C 245.242188 314.722656 245.65625 314.453125 246.054688 314.167969 C 246.457031 313.882812 246.863281 313.597656 247.207031 313.242188 C 246.597656 314.03125 245.816406 314.667969 245.035156 315.285156 C 244.640625 315.59375 244.230469 315.882812 243.800781 316.152344 C 243.589844 316.289062 243.363281 316.414062 243.144531 316.53125 C 242.917969 316.652344 242.699219 316.773438 242.46875 316.878906 C 240.640625 317.75 238.640625 318.261719 236.613281 318.433594 C 234.582031 318.613281 232.535156 318.441406 230.542969 318.046875 C 229.542969 317.84375 228.5625 317.570312 227.597656 317.222656 C 227.355469 317.132812 227.113281 317.042969 226.871094 316.941406 C 226.632812 316.839844 226.378906 316.71875 226.15625 316.597656 C 225.695312 316.359375 225.273438 316.117188 224.835938 315.871094 C 223.113281 314.875 221.410156 313.863281 219.71875 312.832031 C 218.035156 311.78125 216.34375 310.742188 214.6875 309.65625 C 213.023438 308.578125 211.378906 307.46875 209.75 306.335938 C 208.132812 305.183594 206.511719 304.03125 205.015625 302.71875 " fill-opacity="1" fill-rule="nonzero"/><path fill="#512618" d="M 221.6875 301.832031 C 222.308594 301.382812 222.925781 301.03125 223.527344 300.683594 L 225.320312 299.667969 C 225.914062 299.332031 226.5 299 227.085938 298.644531 C 227.667969 298.285156 228.246094 297.945312 228.828125 297.457031 C 228.792969 297.84375 228.632812 298.207031 228.449219 298.546875 C 228.25 298.875 228.019531 299.1875 227.761719 299.460938 C 227.242188 300.015625 226.636719 300.472656 225.984375 300.839844 C 225.335938 301.207031 224.640625 301.488281 223.917969 301.667969 C 223.191406 301.835938 222.445312 301.921875 221.6875 301.832031 " fill-opacity="1" fill-rule="nonzero"/><path fill="#512618" d="M 223.890625 304.035156 C 224.515625 303.585938 225.128906 303.234375 225.734375 302.886719 L 227.527344 301.871094 C 228.117188 301.535156 228.707031 301.203125 229.289062 300.847656 C 229.875 300.488281 230.453125 300.148438 231.035156 299.660156 C 231 300.050781 230.835938 300.410156 230.652344 300.75 C 230.457031 301.078125 230.226562 301.390625 229.964844 301.664062 C 229.449219 302.21875 228.839844 302.675781 228.191406 303.042969 C 227.542969 303.410156 226.84375 303.691406 226.121094 303.871094 C 225.398438 304.039062 224.652344 304.125 223.890625 304.035156 " fill-opacity="1" fill-rule="nonzero"/><path fill="#512618" d="M 226.097656 306.238281 C 226.722656 305.789062 227.335938 305.4375 227.9375 305.089844 L 229.730469 304.074219 C 230.324219 303.738281 230.910156 303.402344 231.496094 303.050781 C 232.082031 302.691406 232.65625 302.351562 233.238281 301.863281 C 233.203125 302.25 233.042969 302.613281 232.859375 302.953125 C 232.660156 303.28125 232.429688 303.59375 232.171875 303.867188 C 231.652344 304.421875 231.046875 304.878906 230.398438 305.246094 C 229.746094 305.613281 229.050781 305.894531 228.328125 306.074219 C 227.605469 306.242188 226.859375 306.328125 226.097656 306.238281 " fill-opacity="1" fill-rule="nonzero"/><path fill="#512618" d="M 228.300781 308.441406 C 228.925781 307.992188 229.539062 307.644531 230.144531 307.292969 L 231.9375 306.277344 C 232.527344 305.941406 233.117188 305.605469 233.699219 305.253906 C 234.289062 304.894531 234.863281 304.554688 235.445312 304.066406 C 235.410156 304.453125 235.246094 304.816406 235.0625 305.15625 C 234.867188 305.484375 234.636719 305.792969 234.378906 306.070312 C 233.859375 306.625 233.253906 307.082031 232.601562 307.449219 C 231.953125 307.8125 231.257812 308.097656 230.535156 308.277344 C 229.8125 308.445312 229.0625 308.53125 228.300781 308.441406 " fill-opacity="1" fill-rule="nonzero"/><path fill="#516123" d="M 197.640625 280.519531 C 196.125 278.535156 194.492188 276.511719 192.914062 274.554688 C 185.238281 265.035156 177.300781 255.1875 176.394531 243.140625 C 176.371094 242.835938 176.351562 242.519531 176.332031 242.191406 C 176.167969 239.644531 175.980469 236.757812 174.285156 234.828125 C 172.480469 232.773438 167.398438 231.6875 159.59375 231.6875 C 155.695312 231.6875 152.117188 231.953125 150.398438 232.082031 L 150.191406 232.097656 C 146.953125 232.339844 144.597656 232.558594 141.617188 232.832031 C 140.46875 232.9375 139.234375 233.050781 137.820312 233.179688 C 135.804688 233.363281 133.976562 233.453125 132.382812 233.453125 C 129.121094 233.453125 126.691406 233.082031 124.738281 232.285156 C 118.707031 229.824219 116.492188 224.296875 115.957031 222.660156 C 115.640625 221.6875 114.839844 218.371094 114.945312 214.75 C 115.082031 210.25 116.582031 206.851562 119.285156 204.917969 L 119.4375 204.8125 C 120.933594 203.738281 122.628906 202.523438 127.519531 202.378906 C 128.515625 202.347656 129.53125 202.335938 130.539062 202.335938 C 138.257812 202.335938 144 203.175781 145.886719 203.453125 L 145.949219 203.460938 C 151.664062 204.296875 156.152344 204.75 160.109375 205.148438 C 165.980469 205.742188 171.046875 206.253906 177.8125 207.789062 C 182.3125 208.808594 186.320312 209.925781 189.8125 213.246094 C 191.070312 214.445312 192.707031 216.417969 195.269531 221.960938 C 196.335938 224.257812 198.097656 230.578125 200.332031 238.582031 C 203.898438 251.371094 208.335938 267.289062 212.609375 276.625 L 212.695312 276.808594 L 212.515625 276.90625 C 208.742188 278.964844 203.9375 280.171875 197.832031 280.605469 L 197.710938 280.613281 L 197.640625 280.519531 " fill-opacity="1" fill-rule="nonzero"/><path fill="#ffffff" d="M 125.902344 225.613281 C 124.425781 225.625 124.105469 226.410156 121.574219 226.695312 C 120.695312 226.792969 121.023438 226.789062 120.292969 226.695312 C 119.148438 226.546875 118.183594 225.191406 115.632812 225.011719 C 109.480469 224.570312 103.234375 234.261719 103.183594 236.421875 C 103.105469 239.941406 106.035156 241.316406 108.59375 241.824219 C 112.050781 242.511719 114.859375 242.027344 116.167969 241.824219 C 126 240.304688 131.195312 242.265625 132.394531 239.664062 C 132.917969 238.523438 132.304688 237.308594 133.476562 235.339844 C 134.066406 234.347656 134.65625 233.925781 134.558594 233.179688 C 134.441406 232.320312 133.558594 232.164062 132.394531 231.015625 C 131 229.648438 131.425781 229.050781 130.230469 227.773438 C 129.953125 227.480469 128.195312 225.601562 125.902344 225.613281 " fill-opacity="1" fill-rule="nonzero"/><path fill="#eb9e94" d="M 121.574219 228.855469 C 120.847656 229.039062 120.121094 229.191406 119.433594 229.421875 C 118.742188 229.640625 118.085938 229.929688 117.488281 230.285156 C 116.253906 231.039062 115.09375 231.898438 114.023438 232.863281 C 112.953125 233.824219 111.976562 234.890625 111.066406 236.023438 C 110.617188 236.589844 110.179688 237.175781 109.773438 237.785156 C 109.351562 238.386719 108.96875 239.015625 108.59375 239.664062 C 108.742188 238.929688 109.011719 238.21875 109.308594 237.53125 C 109.460938 237.183594 109.636719 236.851562 109.804688 236.511719 C 109.988281 236.183594 110.171875 235.851562 110.378906 235.535156 C 111.1875 234.257812 112.167969 233.078125 113.300781 232.0625 C 114.4375 231.046875 115.714844 230.183594 117.097656 229.542969 C 117.808594 229.210938 118.566406 229.015625 119.320312 228.910156 C 120.078125 228.816406 120.828125 228.804688 121.574219 228.855469 " fill-opacity="1" fill-rule="nonzero"/><path fill="#512618" d="M 122.886719 235.109375 C 122.9375 235.746094 122.828125 236.367188 122.644531 236.964844 C 122.453125 237.558594 122.175781 238.125 121.824219 238.640625 C 121.472656 239.160156 121.046875 239.628906 120.5625 240.023438 C 120.078125 240.417969 119.535156 240.746094 118.925781 240.929688 C 119.261719 240.386719 119.613281 239.917969 119.949219 239.441406 C 120.285156 238.96875 120.609375 238.503906 120.933594 238.039062 C 121.25 237.570312 121.5625 237.09375 121.878906 236.609375 C 122.195312 236.121094 122.507812 235.621094 122.886719 235.109375 " fill-opacity="1" fill-rule="nonzero"/><path fill="#512618" d="M 125.304688 235.109375 C 125.355469 235.746094 125.246094 236.367188 125.0625 236.964844 C 124.871094 237.558594 124.59375 238.125 124.242188 238.640625 C 123.890625 239.160156 123.464844 239.628906 122.980469 240.023438 C 122.496094 240.417969 121.953125 240.746094 121.34375 240.929688 C 121.679688 240.386719 122.03125 239.917969 122.367188 239.441406 C 122.703125 238.96875 123.027344 238.503906 123.351562 238.039062 C 123.667969 237.570312 123.980469 237.09375 124.296875 236.609375 C 124.613281 236.121094 124.925781 235.621094 125.304688 235.109375 " fill-opacity="1" fill-rule="nonzero"/><path fill="#512618" d="M 127.722656 235.109375 C 127.773438 235.746094 127.664062 236.367188 127.480469 236.964844 C 127.289062 237.558594 127.011719 238.125 126.660156 238.640625 C 126.308594 239.160156 125.882812 239.628906 125.398438 240.023438 C 124.914062 240.417969 124.371094 240.746094 123.761719 240.929688 C 124.097656 240.386719 124.449219 239.917969 124.785156 239.441406 C 125.121094 238.96875 125.445312 238.503906 125.765625 238.039062 C 126.085938 237.570312 126.398438 237.09375 126.714844 236.609375 C 127.03125 236.121094 127.34375 235.621094 127.722656 235.109375 " fill-opacity="1" fill-rule="nonzero"/><path fill="#512618" d="M 130.140625 235.109375 C 130.191406 235.746094 130.082031 236.367188 129.898438 236.964844 C 129.707031 237.558594 129.429688 238.125 129.078125 238.640625 C 128.722656 239.160156 128.300781 239.628906 127.816406 240.023438 C 127.332031 240.417969 126.789062 240.746094 126.179688 240.929688 C 126.515625 240.386719 126.867188 239.917969 127.199219 239.441406 C 127.539062 238.96875 127.863281 238.503906 128.183594 238.039062 C 128.503906 237.570312 128.816406 237.09375 129.132812 236.609375 C 129.449219 236.121094 129.761719 235.621094 130.140625 235.109375 " fill-opacity="1" fill-rule="nonzero"/><path fill="#ffbcb0" d="M 167.503906 160.203125 C 166.777344 153.878906 167.613281 146.453125 171.09375 146.675781 C 171.867188 146.722656 177.503906 149.527344 180.558594 165.109375 C 183.394531 179.585938 184.207031 185.164062 179.894531 189.0625 C 176.367188 192.246094 170.613281 193.140625 167.210938 190.398438 C 161.953125 186.15625 169.355469 176.300781 167.503906 160.203125 " fill-opacity="1" fill-rule="nonzero"/><path fill="#fccc44" d="M 123.546875 170.9375 C 121.90625 163.734375 116.84375 152.601562 121.789062 143.488281 C 123.789062 139.804688 128.179688 138.769531 134.976562 139.316406 C 139.039062 139.648438 141.898438 137.453125 146.84375 137.121094 C 151.566406 136.808594 154.992188 137.980469 163.769531 141.953125 C 179.703125 149.167969 166.292969 149.59375 173.21875 165.007812 C 178.820312 177.46875 157.285156 184.222656 165.304688 201.238281 C 168.34375 207.683594 158.476562 205.84375 146.128906 206.78125 C 128.050781 208.15625 121.457031 214.960938 115.742188 210.128906 C 113.042969 207.851562 116.117188 200.152344 119.253906 193.191406 C 122.179688 186.683594 125.828125 180.957031 123.546875 170.9375 " fill-opacity="1" fill-rule="nonzero"/><path fill="#512618" d="M 158.671875 132.453125 C 157.625 135.636719 156.460938 139.355469 158.015625 142.941406 C 158.136719 143.21875 159.40625 145.3125 161.949219 149.496094 C 163.5 152.046875 164.191406 153.164062 164.082031 154.738281 C 163.945312 156.761719 162.660156 157.085938 162.605469 158.835938 C 162.503906 162.0625 166.734375 165.171875 167.691406 164.570312 C 168.351562 164.15625 166.859375 162.355469 167.691406 160.144531 C 168.558594 157.839844 170.929688 157.824219 172.941406 155.558594 C 173.183594 155.285156 175.296875 152.640625 175.238281 149.167969 C 175.226562 148.640625 175.15625 147.425781 173.105469 143.269531 C 170.585938 138.167969 169.519531 137.621094 169.003906 135.238281 C 168.335938 132.164062 169.382812 129.722656 169.988281 127.867188 C 170.796875 125.390625 173.175781 124.015625 172.914062 121.417969 C 172.222656 114.503906 170.3125 106.390625 168.675781 106.070312 C 167.40625 105.824219 164.492188 114.699219 158.671875 132.453125 " fill-opacity="1" fill-rule="nonzero"/><path fill="#ec7d40" d="M 159.898438 130.46875 C 159.445312 133.582031 158.691406 137.515625 156.21875 141.351562 C 155.507812 142.460938 154.96875 143.0625 154.160156 143.410156 C 151.585938 144.515625 147.765625 142.398438 146.0625 139.585938 C 144.917969 137.695312 144.925781 135.792969 145.035156 133.414062 C 145.496094 123.152344 148.28125 118.019531 150.675781 116.648438 C 154.273438 114.589844 158.230469 116.820312 160.339844 120.914062 C 161.082031 122.347656 160.6875 125.054688 159.898438 130.46875 " fill-opacity="1" fill-rule="nonzero"/><path fill="#f79556" d="M 143.5625 113.03125 C 142.371094 110.335938 139.371094 103.207031 146.625 98.214844 C 151.003906 95.203125 156.65625 94.878906 161.132812 96.765625 C 166.613281 99.074219 168.832031 103.886719 169.355469 105.140625 C 170.9375 108.910156 171.109375 113.597656 170 116.089844 C 169.835938 116.457031 169.308594 117.226562 169.355469 118.34375 C 169.679688 125.914062 164.234375 134.160156 163.550781 134.933594 C 162.664062 135.9375 161.242188 136.023438 160.652344 136.058594 C 157.207031 136.265625 150.652344 132.828125 148.5625 127.84375 C 147.289062 124.8125 148.757812 124.304688 147.433594 120.4375 C 146.164062 116.738281 145.582031 117.582031 143.5625 113.03125 " fill-opacity="1" fill-rule="nonzero"/><path fill="#512618" d="M 153.257812 115.410156 C 151.675781 120.570312 149.777344 120.164062 147.972656 123.441406 C 145.90625 127.195312 147.597656 130.46875 146.203125 134.582031 C 145.273438 137.328125 142.757812 140.648438 138.332031 140.976562 C 133.300781 141.347656 128.511719 136.488281 126.027344 138.515625 C 125.429688 139.003906 124.949219 139.941406 124.714844 139.828125 C 124.453125 139.699219 124.648438 138.300781 125.207031 137.371094 C 127.175781 134.09375 128.488281 134.914062 130.621094 133.109375 C 133.441406 130.726562 134.191406 128.207031 134.394531 127.210938 C 135.074219 123.867188 133.574219 122.785156 134.558594 119.34375 C 135.464844 116.175781 138.191406 115.613281 138.332031 110.988281 C 138.660156 100.007812 146.367188 92.304688 158.832031 94.273438 C 162.964844 94.925781 164.777344 96.441406 166.871094 98.207031 C 170.457031 101.222656 171.507812 108.035156 171.628906 110.660156 C 171.957031 117.871094 174.089844 117.378906 173.761719 121.476562 C 173.421875 125.710938 169.425781 128.695312 169.332031 132.945312 C 169.167969 140.484375 176.875 140.15625 177.203125 148.023438 C 177.601562 157.523438 169.332031 157.523438 169.167969 162.929688 C 169.09375 165.371094 170.890625 167.242188 170.316406 167.683594 C 169.851562 168.042969 165.886719 165.226562 165.722656 162.441406 C 165.4375 157.585938 173.867188 155.835938 173.761719 149.660156 C 173.597656 140.15625 163.261719 137.816406 171.171875 123.605469 C 174.089844 118.359375 170.042969 118.011719 170.457031 114.25 C 171.136719 108.039062 167.035156 107.875 166.050781 103.285156 C 165.757812 101.914062 165.046875 99.910156 165.125 102.128906 C 165.394531 109.511719 156.375 105.25 153.257812 115.410156 " fill-opacity="1" fill-rule="nonzero"/><path fill="#512618" d="M 128.953125 133.21875 C 129.355469 132.808594 129.757812 132.40625 130.109375 131.957031 C 130.46875 131.519531 130.804688 131.0625 131.089844 130.582031 C 131.667969 129.632812 132.121094 128.605469 132.335938 127.554688 C 132.390625 127.296875 132.417969 127.023438 132.460938 126.757812 C 132.480469 126.492188 132.511719 126.226562 132.507812 125.960938 C 132.511719 125.429688 132.46875 124.90625 132.382812 124.359375 C 132.296875 123.820312 132.1875 123.242188 132.132812 122.625 C 132.078125 122.011719 132.070312 121.363281 132.167969 120.738281 C 132.179688 120.582031 132.21875 120.429688 132.242188 120.273438 C 132.273438 120.121094 132.296875 119.964844 132.339844 119.816406 L 132.453125 119.363281 C 132.496094 119.210938 132.554688 119.054688 132.605469 118.902344 C 132.820312 118.289062 133.128906 117.695312 133.480469 117.179688 C 133.832031 116.65625 134.203125 116.191406 134.546875 115.753906 C 134.894531 115.316406 135.1875 114.894531 135.429688 114.460938 C 135.917969 113.601562 136.160156 112.644531 136.246094 111.613281 L 136.28125 111.21875 L 136.3125 110.773438 C 136.335938 110.476562 136.355469 110.175781 136.398438 109.878906 C 136.460938 109.285156 136.5625 108.691406 136.667969 108.105469 C 136.902344 106.925781 137.238281 105.765625 137.679688 104.636719 C 138.125 103.515625 138.675781 102.429688 139.34375 101.414062 C 140.679688 99.382812 142.488281 97.644531 144.597656 96.457031 C 146.703125 95.257812 149.070312 94.597656 151.421875 94.453125 C 152.597656 94.386719 153.773438 94.410156 154.925781 94.550781 C 155.503906 94.632812 156.078125 94.707031 156.644531 94.832031 C 157.210938 94.941406 157.769531 95.097656 158.324219 95.25 C 157.746094 95.21875 157.179688 95.15625 156.605469 95.152344 C 156.035156 95.121094 155.464844 95.132812 154.898438 95.136719 C 153.765625 95.175781 152.644531 95.277344 151.550781 95.488281 C 149.359375 95.886719 147.269531 96.679688 145.472656 97.878906 C 143.667969 99.074219 142.164062 100.664062 141.046875 102.496094 C 140.488281 103.410156 140.015625 104.382812 139.636719 105.394531 C 139.253906 106.402344 138.960938 107.445312 138.753906 108.515625 C 138.652344 109.046875 138.558594 109.585938 138.496094 110.128906 C 138.457031 110.398438 138.4375 110.671875 138.414062 110.941406 L 138.378906 111.351562 L 138.332031 111.8125 L 138.28125 112.28125 C 138.253906 112.433594 138.222656 112.59375 138.195312 112.75 C 138.160156 112.90625 138.144531 113.066406 138.097656 113.222656 L 137.964844 113.6875 C 137.925781 113.84375 137.863281 113.996094 137.804688 114.152344 C 137.746094 114.304688 137.695312 114.460938 137.625 114.605469 L 137.410156 115.050781 C 137.339844 115.195312 137.25 115.332031 137.167969 115.472656 C 136.832031 116.027344 136.445312 116.53125 136.0625 116.976562 C 135.6875 117.425781 135.324219 117.835938 135.015625 118.25 C 134.699219 118.660156 134.460938 119.085938 134.265625 119.539062 C 134.21875 119.65625 134.167969 119.765625 134.125 119.886719 L 134.003906 120.257812 C 133.960938 120.382812 133.929688 120.507812 133.898438 120.632812 C 133.871094 120.757812 133.828125 120.882812 133.8125 121.007812 C 133.703125 121.511719 133.660156 122.015625 133.667969 122.542969 C 133.671875 123.066406 133.730469 123.625 133.765625 124.21875 C 133.800781 124.808594 133.804688 125.433594 133.730469 126.046875 C 133.703125 126.351562 133.636719 126.652344 133.578125 126.949219 C 133.5 127.242188 133.441406 127.539062 133.335938 127.828125 C 132.53125 130.140625 130.882812 131.976562 128.953125 133.21875 " fill-opacity="1" fill-rule="nonzero"/><path fill="#512618" d="M 181.546875 204.339844 L 137.316406 207.316406 C 136.734375 207.355469 136.53125 208.496094 137.015625 208.824219 L 152.070312 217.136719 C 152.671875 217.550781 153.402344 217.726562 154.125 217.628906 L 199.59375 211.640625 C 200.226562 211.558594 200.332031 210.679688 199.730469 210.453125 L 182.796875 204.523438 C 182.398438 204.375 181.972656 204.3125 181.546875 204.339844 " fill-opacity="1" fill-rule="nonzero"/><path fill="#ffffff" d="M 181.328125 203.929688 L 137.507812 206.902344 C 136.925781 206.941406 136.71875 207.691406 137.203125 208.023438 L 151.84375 215.921875 C 152.445312 216.335938 153.175781 216.511719 153.898438 216.417969 L 199.367188 210.839844 C 200.003906 210.757812 200.105469 209.878906 199.503906 209.652344 L 182.574219 204.113281 C 182.179688 203.964844 181.753906 203.898438 181.328125 203.929688 " fill-opacity="1" fill-rule="nonzero"/><path fill="#f79556" d="M 119.023438 196.699219 C 117.988281 193.558594 129.355469 189.242188 131.941406 190.214844 C 133.746094 190.898438 137.734375 195.222656 141.066406 197.109375 C 153.121094 203.925781 155.964844 200.46875 157.113281 205.863281 C 158.183594 210.894531 153.582031 211.804688 136.832031 207.488281 C 134.507812 206.890625 120.355469 200.761719 119.023438 196.699219 " fill-opacity="1" fill-rule="nonzero"/><path fill="#fccc44" d="M 132.335938 160.835938 C 130.941406 153.601562 128.367188 138.289062 122.777344 142.0625 C 118.710938 144.804688 108.710938 163.800781 111.015625 175.988281 C 111.148438 178.429688 111.746094 181.058594 110.359375 184.109375 C 109.808594 185.320312 108.554688 187.09375 108.378906 189.160156 C 108.164062 191.730469 109.371094 193.734375 110.578125 195.75 C 112.21875 198.480469 113.941406 201.351562 117.171875 202.117188 C 120.5 202.90625 123.839844 201.953125 123.765625 201.457031 C 123.707031 201.054688 121.363281 200.664062 120.90625 199.699219 C 120.46875 198.777344 122.304688 197.65625 124.425781 194.433594 C 126.429688 191.382812 127.054688 190.921875 128.160156 189.820312 C 130.25 187.734375 133.214844 189.601562 133.875 189.601562 C 134.6875 189.601562 133.988281 187.503906 133.875 187.183594 C 133.179688 185.234375 131.050781 185.382812 130.140625 183.671875 C 129.898438 183.21875 129.632812 182.433594 130.359375 179.5 C 131.1875 176.152344 131.351562 172.589844 131.898438 171.15625 C 132.925781 168.449219 133.316406 165.910156 132.335938 160.835938 " fill-opacity="1" fill-rule="nonzero"/><path fill="#ea9a26" d="M 114.09375 199.484375 C 114.199219 198.527344 114.347656 197.597656 114.5 196.660156 C 114.578125 196.191406 114.664062 195.722656 114.761719 195.257812 L 114.832031 194.910156 C 114.855469 194.792969 114.882812 194.679688 114.917969 194.546875 C 114.953125 194.417969 114.988281 194.289062 115.03125 194.167969 C 115.074219 194.042969 115.113281 193.921875 115.164062 193.800781 C 115.558594 192.847656 116.121094 192.015625 116.730469 191.246094 C 117.339844 190.476562 118.015625 189.773438 118.71875 189.109375 C 119.425781 188.445312 120.167969 187.828125 120.9375 187.25 C 121.328125 186.964844 121.71875 186.683594 122.128906 186.421875 C 122.535156 186.152344 122.945312 185.902344 123.410156 185.667969 L 123.597656 185.578125 C 123.667969 185.546875 123.742188 185.511719 123.800781 185.496094 C 123.929688 185.453125 124.054688 185.414062 124.179688 185.382812 C 124.429688 185.3125 124.679688 185.261719 124.925781 185.222656 C 125.421875 185.148438 125.90625 185.109375 126.390625 185.097656 C 127.355469 185.078125 128.304688 185.109375 129.261719 185.207031 C 128.335938 185.472656 127.402344 185.652344 126.5 185.886719 C 126.046875 186 125.601562 186.121094 125.179688 186.261719 C 124.96875 186.339844 124.757812 186.410156 124.566406 186.5 C 124.464844 186.539062 124.371094 186.585938 124.28125 186.632812 C 124.230469 186.660156 124.199219 186.675781 124.164062 186.699219 L 124.042969 186.777344 C 123.332031 187.269531 122.59375 187.867188 121.894531 188.457031 C 121.1875 189.050781 120.492188 189.660156 119.820312 190.289062 C 119.148438 190.910156 118.5 191.558594 117.890625 192.226562 C 117.292969 192.898438 116.714844 193.59375 116.292969 194.339844 C 116.183594 194.527344 116.085938 194.714844 116.003906 194.902344 C 115.964844 194.992188 115.921875 195.105469 115.878906 195.214844 L 115.753906 195.546875 L 115.238281 196.867188 C 114.882812 197.742188 114.527344 198.625 114.09375 199.484375 " fill-opacity="1" fill-rule="nonzero"/><path fill="#512618" d="M 211.292969 173.261719 L 162.804688 176.1875 C 161.5 176.265625 160.402344 177.199219 160.113281 178.46875 L 151.8125 214.921875 C 151.585938 215.902344 152.414062 217.632812 153.414062 217.503906 L 201.347656 211.53125 C 202.511719 211.386719 203.472656 209.742188 203.796875 208.617188 L 213.597656 175.113281 C 213.878906 174.148438 212.292969 173.199219 211.292969 173.261719 " fill-opacity="1" fill-rule="nonzero"/><path fill="#ffffff" d="M 212.121094 174.082031 L 163.632812 177.007812 C 162.328125 177.085938 161.230469 178.015625 160.941406 179.289062 L 152.640625 215.738281 C 152.417969 216.71875 153.238281 217.625 154.238281 217.5 L 201.347656 211.53125 C 202.511719 211.386719 203.476562 210.566406 203.800781 209.441406 L 213.601562 175.9375 C 213.882812 174.972656 213.125 174.019531 212.121094 174.082031 " fill-opacity="1" fill-rule="nonzero"/><path fill="#ea9a26" d="M 134.46875 189.617188 C 134.46875 189.136719 134.316406 188.683594 134.160156 188.242188 C 134 187.792969 133.824219 187.367188 133.542969 187.019531 C 132.988281 186.3125 132.160156 185.894531 131.339844 185.339844 C 130.929688 185.058594 130.523438 184.71875 130.191406 184.285156 C 130.109375 184.175781 130.03125 184.0625 129.960938 183.945312 L 129.863281 183.785156 C 129.832031 183.726562 129.792969 183.65625 129.761719 183.585938 C 129.625 183.28125 129.585938 182.964844 129.574219 182.695312 C 129.558594 182.144531 129.632812 181.65625 129.707031 181.167969 C 129.78125 180.679688 129.882812 180.207031 129.980469 179.730469 L 130.570312 176.941406 C 130.761719 176.015625 130.945312 175.085938 131.105469 174.15625 C 131.445312 172.296875 131.734375 170.4375 131.882812 168.574219 C 131.96875 167.644531 132.011719 166.71875 132.007812 165.796875 C 132.011719 164.875 131.941406 163.976562 131.789062 163.089844 C 131.472656 161.210938 131.109375 159.347656 130.753906 157.488281 C 130.375 155.628906 129.980469 153.773438 129.492188 151.945312 C 129.007812 150.113281 128.457031 148.296875 127.648438 146.5625 C 128.769531 148.125 129.546875 149.914062 130.246094 151.703125 C 130.921875 153.503906 131.492188 155.34375 131.980469 157.203125 C 132.488281 159.054688 132.886719 160.929688 133.289062 162.800781 C 133.703125 164.789062 133.648438 166.777344 133.496094 168.714844 C 133.308594 170.652344 133 172.5625 132.609375 174.449219 C 132.195312 176.332031 131.742188 178.199219 131.207031 180.035156 C 131.082031 180.488281 130.957031 180.9375 130.855469 181.386719 C 130.753906 181.835938 130.664062 182.289062 130.636719 182.695312 C 130.625 182.898438 130.636719 183.066406 130.683594 183.207031 C 130.695312 183.246094 130.710938 183.285156 130.734375 183.332031 L 130.804688 183.480469 C 130.847656 183.574219 130.898438 183.664062 130.953125 183.75 C 131.171875 184.101562 131.480469 184.410156 131.824219 184.710938 C 132.167969 185.015625 132.554688 185.300781 132.925781 185.628906 C 133.296875 185.957031 133.65625 186.328125 133.914062 186.769531 C 134.175781 187.214844 134.300781 187.710938 134.394531 188.175781 C 134.476562 188.652344 134.5625 189.140625 134.46875 189.617188 " fill-opacity="1" fill-rule="nonzero"/><path fill="#512618" d="M 166.089844 97.765625 C 166.695312 98.214844 167.277344 98.71875 167.773438 99.304688 C 168.285156 99.875 168.710938 100.515625 169.125 101.160156 C 169.320312 101.492188 169.511719 101.828125 169.691406 102.164062 C 169.859375 102.507812 170.046875 102.847656 170.195312 103.199219 C 170.351562 103.550781 170.507812 103.902344 170.644531 104.261719 C 170.792969 104.617188 170.921875 104.976562 171.050781 105.339844 C 171.1875 105.699219 171.289062 106.070312 171.410156 106.4375 C 171.511719 106.804688 171.625 107.175781 171.714844 107.550781 C 171.90625 108.296875 172.0625 109.054688 172.171875 109.835938 C 172.382812 111.304688 172.628906 112.753906 173.097656 114.101562 C 173.320312 114.78125 173.601562 115.414062 173.933594 116.066406 L 174.1875 116.570312 C 174.273438 116.75 174.363281 116.917969 174.445312 117.113281 C 174.53125 117.300781 174.613281 117.488281 174.683594 117.695312 L 174.792969 117.996094 L 174.882812 118.3125 C 174.945312 118.519531 174.980469 118.734375 175.019531 118.945312 C 175.066406 119.160156 175.082031 119.367188 175.101562 119.578125 L 175.132812 119.894531 L 175.140625 120.207031 C 175.136719 120.410156 175.160156 120.613281 175.136719 120.828125 L 175.09375 121.464844 C 175.074219 121.679688 175.027344 121.882812 174.996094 122.089844 L 174.941406 122.402344 C 174.917969 122.503906 174.890625 122.605469 174.867188 122.703125 C 174.8125 122.90625 174.765625 123.109375 174.703125 123.304688 C 174.457031 124.089844 174.140625 124.828125 173.804688 125.535156 C 173.46875 126.234375 173.121094 126.910156 172.792969 127.570312 C 172.472656 128.230469 172.15625 128.878906 171.921875 129.527344 C 171.851562 129.6875 171.8125 129.851562 171.757812 130.011719 C 171.710938 130.175781 171.652344 130.335938 171.621094 130.496094 L 171.511719 130.984375 L 171.449219 131.464844 C 171.417969 131.625 171.421875 131.785156 171.417969 131.945312 C 171.417969 132.109375 171.394531 132.257812 171.414062 132.429688 L 171.445312 132.9375 L 171.511719 133.429688 C 171.617188 134.085938 171.804688 134.714844 172.082031 135.304688 C 172.355469 135.898438 172.71875 136.457031 173.152344 136.984375 C 173.585938 137.511719 174.09375 138.011719 174.625 138.511719 C 175.6875 139.515625 176.910156 140.503906 177.925781 141.808594 C 178.429688 142.457031 178.875 143.183594 179.191406 143.96875 C 179.507812 144.75 179.695312 145.578125 179.773438 146.402344 C 179.785156 146.605469 179.808594 146.816406 179.8125 147.015625 L 179.816406 147.605469 C 179.824219 147.804688 179.8125 148.003906 179.800781 148.203125 C 179.789062 148.402344 179.785156 148.601562 179.765625 148.796875 C 179.699219 149.59375 179.554688 150.390625 179.332031 151.160156 C 179.109375 151.933594 178.796875 152.683594 178.398438 153.378906 C 178 154.074219 177.527344 154.71875 177.007812 155.304688 C 175.964844 156.472656 174.765625 157.417969 173.703125 158.445312 C 173.179688 158.964844 172.695312 159.523438 172.339844 160.164062 C 171.984375 160.804688 171.777344 161.535156 171.734375 162.289062 C 171.65625 161.535156 171.769531 160.753906 172.046875 160.027344 C 172.339844 159.304688 172.785156 158.652344 173.265625 158.050781 C 173.75 157.453125 174.277344 156.902344 174.78125 156.347656 C 175.285156 155.792969 175.769531 155.234375 176.199219 154.648438 C 177.0625 153.480469 177.691406 152.191406 177.980469 150.8125 C 178.121094 150.125 178.207031 149.421875 178.222656 148.710938 C 178.234375 148.535156 178.222656 148.355469 178.222656 148.175781 C 178.222656 148 178.222656 147.824219 178.203125 147.644531 L 178.167969 147.109375 C 178.15625 146.929688 178.128906 146.765625 178.109375 146.59375 C 177.921875 145.238281 177.351562 144.027344 176.464844 142.984375 C 175.578125 141.9375 174.425781 141.027344 173.265625 140.003906 C 172.683594 139.488281 172.105469 138.933594 171.570312 138.308594 C 171.035156 137.679688 170.554688 136.976562 170.183594 136.203125 C 169.8125 135.433594 169.5625 134.605469 169.421875 133.773438 L 169.339844 133.148438 C 169.320312 132.941406 169.308594 132.734375 169.292969 132.527344 C 169.273438 132.320312 169.292969 132.09375 169.292969 131.882812 C 169.300781 131.667969 169.296875 131.445312 169.335938 131.238281 L 169.421875 130.597656 L 169.566406 129.980469 C 169.609375 129.773438 169.675781 129.578125 169.742188 129.378906 C 169.804688 129.183594 169.863281 128.980469 169.941406 128.796875 L 170.164062 128.230469 C 170.242188 128.042969 170.324219 127.863281 170.40625 127.683594 C 170.570312 127.316406 170.746094 126.976562 170.917969 126.628906 C 171.273438 125.945312 171.625 125.289062 171.953125 124.632812 C 172.273438 123.984375 172.5625 123.335938 172.789062 122.691406 C 172.84375 122.527344 172.882812 122.367188 172.933594 122.203125 L 173.003906 121.957031 L 173.050781 121.714844 C 173.078125 121.550781 173.125 121.390625 173.140625 121.226562 L 173.1875 120.738281 C 173.226562 120.058594 173.207031 119.378906 173.066406 118.765625 C 172.933594 118.148438 172.648438 117.535156 172.328125 116.828125 C 172.007812 116.121094 171.714844 115.355469 171.503906 114.589844 L 171.421875 114.304688 L 171.351562 114.015625 L 171.21875 113.4375 C 171.15625 113.050781 171.074219 112.664062 171.023438 112.28125 C 170.976562 111.894531 170.914062 111.511719 170.882812 111.125 L 170.789062 109.976562 C 170.742188 109.261719 170.636719 108.53125 170.511719 107.804688 C 170.457031 107.441406 170.378906 107.078125 170.308594 106.71875 C 170.226562 106.359375 170.148438 105.996094 170.058594 105.636719 C 169.703125 104.199219 169.230469 102.789062 168.609375 101.441406 C 168.285156 100.773438 167.945312 100.109375 167.519531 99.5 C 167.121094 98.863281 166.617188 98.308594 166.089844 97.765625 " fill-opacity="1" fill-rule="nonzero"/><path fill="#d65b5b" d="M 157.433594 129.472656 C 157.359375 129.34375 157.445312 129.179688 157.59375 129.171875 C 158.238281 129.132812 159.792969 129.070312 161.566406 129.25 C 162.777344 129.371094 163.917969 129.683594 164.386719 129.824219 C 164.511719 129.863281 164.566406 130.007812 164.5 130.121094 C 164.167969 130.703125 163.078125 132.210938 160.917969 131.972656 C 158.976562 131.753906 157.828125 130.132812 157.433594 129.472656 " fill-opacity="1" fill-rule="nonzero"/><path fill="#512618" d="M 165.902344 115.753906 C 166.042969 115.390625 166.269531 115.09375 166.535156 114.832031 C 166.796875 114.570312 167.101562 114.355469 167.433594 114.183594 C 168.105469 113.828125 168.910156 113.828125 169.640625 113.902344 C 169.828125 113.921875 170.011719 113.9375 170.191406 113.984375 L 170.460938 114.039062 C 170.554688 114.0625 170.652344 114.09375 170.746094 114.125 C 171.121094 114.261719 171.441406 114.476562 171.714844 114.714844 C 172.261719 115.195312 172.636719 115.789062 173.019531 116.324219 L 172.9375 116.417969 C 172.648438 116.210938 172.40625 115.976562 172.148438 115.773438 C 171.890625 115.566406 171.625 115.382812 171.347656 115.234375 C 171.074219 115.085938 170.792969 114.980469 170.519531 114.941406 L 170.3125 114.917969 L 170.082031 114.910156 C 169.933594 114.902344 169.777344 114.914062 169.628906 114.925781 C 169.476562 114.929688 169.328125 114.96875 169.183594 114.992188 C 169.035156 115.035156 168.890625 115.066406 168.75 115.121094 C 168.46875 115.210938 168.191406 115.304688 167.898438 115.371094 L 166.992188 115.605469 C 166.679688 115.6875 166.355469 115.773438 165.984375 115.847656 L 165.902344 115.753906 " fill-opacity="1" fill-rule="nonzero"/><path fill="#512618" d="M 151.820312 113.554688 C 152.503906 113.046875 153.296875 112.683594 154.136719 112.425781 C 154.980469 112.175781 155.894531 112.09375 156.808594 112.195312 C 157.039062 112.214844 157.265625 112.261719 157.496094 112.289062 C 157.726562 112.332031 157.953125 112.382812 158.183594 112.4375 C 158.636719 112.5625 159.066406 112.78125 159.429688 113.082031 C 160.148438 113.679688 160.707031 114.484375 160.832031 115.433594 L 160.699219 115.53125 C 159.847656 115.140625 159.191406 114.777344 158.523438 114.464844 C 158.191406 114.308594 157.882812 114.140625 157.566406 113.953125 C 157.40625 113.867188 157.246094 113.773438 157.078125 113.691406 C 156.910156 113.621094 156.738281 113.542969 156.558594 113.496094 C 156.199219 113.390625 155.828125 113.304688 155.445312 113.277344 C 155.0625 113.226562 154.671875 113.21875 154.277344 113.238281 C 153.484375 113.261719 152.683594 113.4375 151.898438 113.703125 L 151.820312 113.554688 " fill-opacity="1" fill-rule="nonzero"/><path fill="#e6e6e6" d="M 154.738281 117.820312 C 154.75 118.039062 155.433594 118.664062 157.402344 118.582031 C 158.277344 118.546875 159.140625 118.289062 159.121094 117.851562 C 159.105469 117.4375 158.511719 116.691406 157.753906 116.597656 C 156.433594 116.433594 154.722656 117.382812 154.738281 117.820312 " fill-opacity="1" fill-rule="nonzero"/><path fill="#512618" d="M 156.242188 117.265625 C 156.691406 116.109375 158.753906 116.5 158.347656 118.0625 C 157.941406 119.625 155.519531 119.117188 156.242188 117.265625 " fill-opacity="1" fill-rule="nonzero"/><path fill="#512618" d="M 159.332031 118.175781 C 159.101562 117.953125 158.878906 117.769531 158.644531 117.660156 C 158.414062 117.550781 158.1875 117.507812 157.949219 117.5 C 157.472656 117.476562 156.949219 117.574219 156.398438 117.671875 C 155.847656 117.773438 155.265625 117.886719 154.636719 117.914062 C 154.320312 117.921875 153.992188 117.914062 153.660156 117.832031 C 153.492188 117.792969 153.324219 117.71875 153.179688 117.621094 C 153.03125 117.523438 152.914062 117.375 152.867188 117.222656 C 153.015625 117.292969 153.152344 117.316406 153.285156 117.3125 C 153.421875 117.300781 153.546875 117.285156 153.679688 117.246094 C 153.9375 117.179688 154.199219 117.085938 154.46875 116.992188 C 155.007812 116.804688 155.570312 116.613281 156.1875 116.503906 C 156.796875 116.398438 157.480469 116.347656 158.167969 116.589844 C 158.507812 116.714844 158.828125 116.9375 159.035156 117.230469 C 159.242188 117.523438 159.339844 117.855469 159.332031 118.175781 " fill-opacity="1" fill-rule="nonzero"/><path fill="#e6e6e6" d="M 166.242188 118.816406 C 166.25 119.015625 166.777344 119.578125 168.28125 119.519531 C 168.949219 119.488281 169.261719 119.144531 169.242188 118.753906 C 169.226562 118.378906 169.117188 117.824219 168.539062 117.738281 C 167.53125 117.582031 166.226562 118.425781 166.242188 118.816406 " fill-opacity="1" fill-rule="nonzero"/><path fill="#512618" d="M 167.484375 118.394531 C 167.863281 117.417969 169.597656 117.75 169.257812 119.066406 C 168.914062 120.382812 166.875 119.957031 167.484375 118.394531 " fill-opacity="1" fill-rule="nonzero"/><path fill="#512618" d="M 170.242188 118.902344 C 170.015625 118.777344 169.828125 118.652344 169.632812 118.570312 C 169.441406 118.488281 169.265625 118.441406 169.097656 118.425781 C 168.773438 118.398438 168.445312 118.488281 168.054688 118.613281 C 167.667969 118.734375 167.242188 118.898438 166.742188 118.976562 C 166.492188 119.011719 166.21875 119.03125 165.945312 118.957031 C 165.671875 118.886719 165.421875 118.710938 165.320312 118.476562 C 165.570312 118.53125 165.773438 118.5 165.953125 118.4375 C 166.136719 118.371094 166.308594 118.277344 166.492188 118.179688 C 166.859375 117.984375 167.253906 117.753906 167.730469 117.601562 C 167.96875 117.527344 168.230469 117.46875 168.511719 117.460938 C 168.792969 117.453125 169.09375 117.503906 169.359375 117.636719 C 169.625 117.769531 169.839844 117.964844 169.984375 118.183594 C 170.128906 118.410156 170.207031 118.652344 170.242188 118.902344 " fill-opacity="1" fill-rule="nonzero"/><path fill="#512618" d="M 219.480469 299.625 C 220.101562 299.175781 220.71875 298.828125 221.324219 298.480469 L 223.117188 297.464844 C 223.707031 297.128906 224.296875 296.792969 224.875 296.441406 C 225.464844 296.082031 226.039062 295.742188 226.621094 295.253906 C 226.589844 295.640625 226.425781 296.003906 226.242188 296.339844 C 226.046875 296.671875 225.816406 296.980469 225.554688 297.257812 C 225.039062 297.8125 224.429688 298.269531 223.78125 298.636719 C 223.128906 299.003906 222.433594 299.285156 221.710938 299.460938 C 220.988281 299.632812 220.242188 299.71875 219.480469 299.625 " fill-opacity="1" fill-rule="nonzero"/><path fill="#fccc44" d="M 320.75 162.867188 L 313.867188 126.601562 C 313.777344 126.121094 313.351562 125.769531 312.859375 125.769531 L 279.671875 125.769531 C 279.179688 125.769531 278.757812 126.121094 278.664062 126.601562 L 271.785156 162.867188 C 271.664062 163.5 272.152344 164.082031 272.792969 164.082031 L 319.742188 164.082031 C 320.382812 164.082031 320.867188 163.5 320.75 162.867188 " fill-opacity="1" fill-rule="nonzero"/><path fill="#312553" d="M 298.199219 175.117188 C 297.773438 171.125 300.332031 167.402344 301.074219 166.414062 C 301.152344 166.3125 301.078125 166.160156 300.949219 166.160156 L 291.589844 166.160156 C 291.457031 166.160156 291.382812 166.3125 291.460938 166.414062 C 292.203125 167.402344 294.757812 171.125 294.335938 175.117188 C 293.476562 183.179688 286.710938 190.328125 286.710938 196.855469 C 286.710938 199.894531 288.328125 204.640625 288.84375 206.269531 C 288.929688 206.535156 289.175781 206.71875 289.457031 206.71875 L 303.078125 206.71875 C 303.359375 206.71875 303.605469 206.535156 303.691406 206.269531 C 304.207031 204.640625 305.824219 199.894531 305.824219 196.855469 C 305.824219 190.328125 299.054688 183.179688 298.199219 175.117188 " fill-opacity="1" fill-rule="nonzero"/><path fill="#ffbcb0" d="M 296.089844 196.4375 C 295.066406 198.820312 292.925781 200.453125 291.34375 201.257812 C 291.886719 198.703125 292.324219 195.574219 292.5 192.296875 C 292.9375 192.066406 293.535156 191.917969 294.359375 192.066406 C 295.132812 192.207031 295.699219 192.59375 296.039062 193.222656 C 296.582031 194.238281 296.449219 195.597656 296.089844 196.4375 Z M 297.328125 192.53125 C 296.773438 191.503906 295.839844 190.84375 294.617188 190.625 C 293.800781 190.476562 293.121094 190.542969 292.5625 190.703125 C 292.578125 189.984375 292.585938 189.265625 292.574219 188.542969 C 292.570312 188.433594 292.480469 188.347656 292.371094 188.347656 L 277.390625 188.347656 C 277.28125 188.347656 277.191406 188.433594 277.1875 188.542969 C 277.074219 196.179688 278.679688 203.867188 280.035156 206.503906 C 280.101562 206.632812 280.238281 206.71875 280.386719 206.71875 L 289.378906 206.71875 C 289.523438 206.71875 289.660156 206.632812 289.726562 206.503906 C 290.125 205.734375 290.542969 204.53125 290.929688 203.023438 C 292.820312 202.339844 296.003906 200.351562 297.433594 197.015625 C 297.945312 195.828125 298.109375 193.980469 297.328125 192.53125 " fill-opacity="1" fill-rule="nonzero"/><path fill="#346e00" d="M 321.652344 184.792969 C 319.230469 181.183594 321.058594 174.78125 326.855469 171.832031 C 328.21875 171.136719 330.058594 169.8125 330.675781 167.976562 C 330.851562 167.449219 330.691406 166.976562 330.832031 166.984375 C 331 166.996094 331.050781 168.132812 331.0625 168.445312 C 331.167969 170.808594 330.644531 172.753906 330.421875 173.875 C 329.679688 177.585938 330.890625 182.472656 327.515625 185.789062 C 325.085938 188.171875 322.855469 186.585938 321.652344 184.792969 " fill-opacity="1" fill-rule="nonzero"/><path fill="#346e00" d="M 316.457031 170.289062 C 316.585938 170.300781 316.300781 170.464844 316.433594 170.882812 C 316.617188 171.46875 317.105469 171.824219 317.40625 172.148438 C 318.472656 173.316406 318.710938 174.816406 318.636719 176.347656 C 318.578125 177.46875 317.722656 179.09375 316.921875 178.53125 C 313.085938 175.839844 315.738281 172.015625 316.046875 171.34375 C 316.429688 170.523438 316.292969 170.273438 316.457031 170.289062 " fill-opacity="1" fill-rule="nonzero"/><path fill="#7ca417" d="M 319.957031 190.695312 C 321.761719 188.914062 319.382812 178.894531 311.25 173.953125 C 310.40625 173.441406 309.03125 172.472656 308.773438 172.671875 C 308.644531 172.769531 309.527344 172.933594 309.261719 173.78125 C 306.328125 183.117188 316.144531 183.117188 316.652344 189.089844 C 316.800781 190.851562 318.945312 191.695312 319.957031 190.695312 " fill-opacity="1" fill-rule="nonzero"/><path fill="#7ca417" d="M 340.042969 174.90625 C 339.507812 175.402344 337.855469 175.210938 336.3125 175.882812 C 334.871094 176.515625 334.253906 177.949219 333.617188 180.007812 C 332.523438 183.539062 329.40625 188.941406 325.039062 188.980469 C 317.96875 189.042969 324.363281 181.019531 330.679688 176.683594 C 333.410156 174.808594 337.164062 174.773438 338.847656 174.753906 C 339.847656 174.738281 340.292969 174.675781 340.042969 174.90625 " fill-opacity="1" fill-rule="nonzero"/><path fill="#7ca417" d="M 321.070312 167.039062 C 321.605469 166.78125 320.886719 168.917969 323.582031 171.65625 C 329.335938 177.492188 328.148438 189.28125 322.121094 189.875 C 319.726562 190.109375 310.824219 180.585938 320.425781 169.4375 C 321.558594 168.117188 320.867188 167.136719 321.070312 167.039062 " fill-opacity="1" fill-rule="nonzero"/><path fill="#9fbc50" d="M 327.5 175.933594 C 327.535156 175.523438 328.964844 179.75 329.136719 181.816406 C 329.503906 186.300781 328.925781 188.765625 327.183594 190.632812 C 325.15625 192.804688 321.707031 193.699219 319.664062 191.742188 C 317.839844 189.996094 317.734375 186.894531 319.316406 184.734375 C 320.441406 183.191406 320.828125 183.132812 323.933594 179.828125 C 325.851562 177.789062 327.339844 177.832031 327.5 175.933594 " fill-opacity="1" fill-rule="nonzero"/><path fill="#eb9e94" d="M 331.625 189.925781 C 331.574219 189.359375 331.101562 188.925781 330.535156 188.925781 L 315.207031 188.925781 C 314.636719 188.925781 314.167969 189.359375 314.121094 189.925781 L 313.4375 197.597656 L 313.4375 198.699219 C 313.4375 202.878906 316.828125 206.648438 321.011719 206.648438 L 324.730469 206.648438 C 328.910156 206.648438 332.304688 202.878906 332.304688 198.699219 L 332.304688 197.597656 L 331.625 189.925781 " fill-opacity="1" fill-rule="nonzero"/><path fill="#512618" d="M 342.136719 316.214844 L 340.363281 316.214844 C 339.964844 316.214844 339.617188 315.949219 339.515625 315.570312 L 314.976562 211.492188 C 314.722656 210.574219 315.414062 209.664062 316.371094 209.664062 L 320.0625 209.664062 C 320.726562 209.664062 321.304688 210.117188 321.464844 210.761719 L 342.992188 315.121094 C 343.128906 315.675781 342.710938 316.214844 342.136719 316.214844 " fill-opacity="1" fill-rule="nonzero"/><path fill="#93582f" d="M 320.359375 316.214844 L 318.585938 316.214844 C 318.1875 316.214844 317.839844 315.949219 317.734375 315.570312 L 307.386719 211.492188 C 307.132812 210.574219 307.824219 209.664062 308.78125 209.664062 L 312.472656 209.664062 C 313.136719 209.664062 313.714844 210.117188 313.875 210.761719 L 321.214844 315.121094 C 321.351562 315.679688 320.929688 316.214844 320.359375 316.214844 " fill-opacity="1" fill-rule="nonzero"/><path fill="#512618" d="M 264.453125 316.214844 L 266.230469 316.214844 C 266.625 316.214844 266.972656 315.953125 267.078125 315.570312 L 295.949219 211.492188 C 296.203125 210.574219 295.511719 209.664062 294.554688 209.664062 L 290.863281 209.664062 C 290.199219 209.664062 289.621094 210.117188 289.460938 210.761719 L 263.597656 315.121094 C 263.460938 315.679688 263.882812 316.214844 264.453125 316.214844 " fill-opacity="1" fill-rule="nonzero"/><path fill="#93582f" d="M 265.886719 211.976562 L 341.085938 211.976562 C 341.488281 211.976562 341.8125 211.652344 341.8125 211.25 L 341.8125 207.683594 C 341.8125 207.28125 341.488281 206.957031 341.085938 206.957031 L 265.886719 206.957031 C 265.273438 206.957031 264.777344 207.453125 264.777344 208.066406 L 264.777344 210.871094 C 264.777344 211.484375 265.273438 211.976562 265.886719 211.976562 " fill-opacity="1" fill-rule="nonzero"/></svg>